<?xml version="1.0" standalone="no"?>
<svg xmlns="http://www.w3.org/2000/svg" version="1.1" width="235" height="235">
	<!-- Created with https://api.qrserver.com (QR Code API, see goQR.me/api for information) -->
	<title>QR Code</title>
	<desc>Yeo Kheng Meng
Software/Hardware Developer
(65) 97390391

Work:
khengmeng@algoaccess.com
algoaccess.com

Personal:
yeokm1@gmail.com
yeokhengmeng.com</desc>
	<rect style="fill:rgb(255, 255, 255);fill-opacity:1" x="0" y="0" width="235" height="235" />
	<g id="elements">
		<path style="fill:rgb(0, 0, 0)" d="M 5,5 l 5,0 0,5 -5,0 z M 10,5 l 5,0 0,5 -5,0 z M 15,5 l 5,0 0,5 -5,0 z M 20,5 l 5,0 0,5 -5,0 z M 25,5 l 5,0 0,5 -5,0 z M 30,5 l 5,0 0,5 -5,0 z M 35,5 l 5,0 0,5 -5,0 z M 50,5 l 5,0 0,5 -5,0 z M 55,5 l 5,0 0,5 -5,0 z M 75,5 l 5,0 0,5 -5,0 z M 100,5 l 5,0 0,5 -5,0 z M 115,5 l 5,0 0,5 -5,0 z M 125,5 l 5,0 0,5 -5,0 z M 130,5 l 5,0 0,5 -5,0 z M 140,5 l 5,0 0,5 -5,0 z M 150,5 l 5,0 0,5 -5,0 z M 155,5 l 5,0 0,5 -5,0 z M 160,5 l 5,0 0,5 -5,0 z M 165,5 l 5,0 0,5 -5,0 z M 185,5 l 5,0 0,5 -5,0 z M 195,5 l 5,0 0,5 -5,0 z M 200,5 l 5,0 0,5 -5,0 z M 205,5 l 5,0 0,5 -5,0 z M 210,5 l 5,0 0,5 -5,0 z M 215,5 l 5,0 0,5 -5,0 z M 220,5 l 5,0 0,5 -5,0 z M 225,5 l 5,0 0,5 -5,0 z M 5,10 l 5,0 0,5 -5,0 z M 35,10 l 5,0 0,5 -5,0 z M 45,10 l 5,0 0,5 -5,0 z M 50,10 l 5,0 0,5 -5,0 z M 60,10 l 5,0 0,5 -5,0 z M 65,10 l 5,0 0,5 -5,0 z M 70,10 l 5,0 0,5 -5,0 z M 85,10 l 5,0 0,5 -5,0 z M 100,10 l 5,0 0,5 -5,0 z M 105,10 l 5,0 0,5 -5,0 z M 110,10 l 5,0 0,5 -5,0 z M 135,10 l 5,0 0,5 -5,0 z M 140,10 l 5,0 0,5 -5,0 z M 160,10 l 5,0 0,5 -5,0 z M 180,10 l 5,0 0,5 -5,0 z M 195,10 l 5,0 0,5 -5,0 z M 225,10 l 5,0 0,5 -5,0 z M 5,15 l 5,0 0,5 -5,0 z M 15,15 l 5,0 0,5 -5,0 z M 20,15 l 5,0 0,5 -5,0 z M 25,15 l 5,0 0,5 -5,0 z M 35,15 l 5,0 0,5 -5,0 z M 65,15 l 5,0 0,5 -5,0 z M 70,15 l 5,0 0,5 -5,0 z M 75,15 l 5,0 0,5 -5,0 z M 80,15 l 5,0 0,5 -5,0 z M 100,15 l 5,0 0,5 -5,0 z M 105,15 l 5,0 0,5 -5,0 z M 110,15 l 5,0 0,5 -5,0 z M 125,15 l 5,0 0,5 -5,0 z M 130,15 l 5,0 0,5 -5,0 z M 135,15 l 5,0 0,5 -5,0 z M 140,15 l 5,0 0,5 -5,0 z M 145,15 l 5,0 0,5 -5,0 z M 150,15 l 5,0 0,5 -5,0 z M 155,15 l 5,0 0,5 -5,0 z M 165,15 l 5,0 0,5 -5,0 z M 170,15 l 5,0 0,5 -5,0 z M 180,15 l 5,0 0,5 -5,0 z M 195,15 l 5,0 0,5 -5,0 z M 205,15 l 5,0 0,5 -5,0 z M 210,15 l 5,0 0,5 -5,0 z M 215,15 l 5,0 0,5 -5,0 z M 225,15 l 5,0 0,5 -5,0 z M 5,20 l 5,0 0,5 -5,0 z M 15,20 l 5,0 0,5 -5,0 z M 20,20 l 5,0 0,5 -5,0 z M 25,20 l 5,0 0,5 -5,0 z M 35,20 l 5,0 0,5 -5,0 z M 45,20 l 5,0 0,5 -5,0 z M 65,20 l 5,0 0,5 -5,0 z M 70,20 l 5,0 0,5 -5,0 z M 80,20 l 5,0 0,5 -5,0 z M 85,20 l 5,0 0,5 -5,0 z M 90,20 l 5,0 0,5 -5,0 z M 95,20 l 5,0 0,5 -5,0 z M 110,20 l 5,0 0,5 -5,0 z M 115,20 l 5,0 0,5 -5,0 z M 120,20 l 5,0 0,5 -5,0 z M 130,20 l 5,0 0,5 -5,0 z M 135,20 l 5,0 0,5 -5,0 z M 150,20 l 5,0 0,5 -5,0 z M 155,20 l 5,0 0,5 -5,0 z M 160,20 l 5,0 0,5 -5,0 z M 180,20 l 5,0 0,5 -5,0 z M 185,20 l 5,0 0,5 -5,0 z M 195,20 l 5,0 0,5 -5,0 z M 205,20 l 5,0 0,5 -5,0 z M 210,20 l 5,0 0,5 -5,0 z M 215,20 l 5,0 0,5 -5,0 z M 225,20 l 5,0 0,5 -5,0 z M 5,25 l 5,0 0,5 -5,0 z M 15,25 l 5,0 0,5 -5,0 z M 20,25 l 5,0 0,5 -5,0 z M 25,25 l 5,0 0,5 -5,0 z M 35,25 l 5,0 0,5 -5,0 z M 55,25 l 5,0 0,5 -5,0 z M 65,25 l 5,0 0,5 -5,0 z M 75,25 l 5,0 0,5 -5,0 z M 90,25 l 5,0 0,5 -5,0 z M 95,25 l 5,0 0,5 -5,0 z M 105,25 l 5,0 0,5 -5,0 z M 110,25 l 5,0 0,5 -5,0 z M 115,25 l 5,0 0,5 -5,0 z M 120,25 l 5,0 0,5 -5,0 z M 125,25 l 5,0 0,5 -5,0 z M 130,25 l 5,0 0,5 -5,0 z M 150,25 l 5,0 0,5 -5,0 z M 155,25 l 5,0 0,5 -5,0 z M 175,25 l 5,0 0,5 -5,0 z M 180,25 l 5,0 0,5 -5,0 z M 185,25 l 5,0 0,5 -5,0 z M 195,25 l 5,0 0,5 -5,0 z M 205,25 l 5,0 0,5 -5,0 z M 210,25 l 5,0 0,5 -5,0 z M 215,25 l 5,0 0,5 -5,0 z M 225,25 l 5,0 0,5 -5,0 z M 5,30 l 5,0 0,5 -5,0 z M 35,30 l 5,0 0,5 -5,0 z M 45,30 l 5,0 0,5 -5,0 z M 70,30 l 5,0 0,5 -5,0 z M 75,30 l 5,0 0,5 -5,0 z M 80,30 l 5,0 0,5 -5,0 z M 85,30 l 5,0 0,5 -5,0 z M 105,30 l 5,0 0,5 -5,0 z M 125,30 l 5,0 0,5 -5,0 z M 135,30 l 5,0 0,5 -5,0 z M 150,30 l 5,0 0,5 -5,0 z M 170,30 l 5,0 0,5 -5,0 z M 195,30 l 5,0 0,5 -5,0 z M 225,30 l 5,0 0,5 -5,0 z M 5,35 l 5,0 0,5 -5,0 z M 10,35 l 5,0 0,5 -5,0 z M 15,35 l 5,0 0,5 -5,0 z M 20,35 l 5,0 0,5 -5,0 z M 25,35 l 5,0 0,5 -5,0 z M 30,35 l 5,0 0,5 -5,0 z M 35,35 l 5,0 0,5 -5,0 z M 45,35 l 5,0 0,5 -5,0 z M 55,35 l 5,0 0,5 -5,0 z M 65,35 l 5,0 0,5 -5,0 z M 75,35 l 5,0 0,5 -5,0 z M 85,35 l 5,0 0,5 -5,0 z M 95,35 l 5,0 0,5 -5,0 z M 105,35 l 5,0 0,5 -5,0 z M 115,35 l 5,0 0,5 -5,0 z M 125,35 l 5,0 0,5 -5,0 z M 135,35 l 5,0 0,5 -5,0 z M 145,35 l 5,0 0,5 -5,0 z M 155,35 l 5,0 0,5 -5,0 z M 165,35 l 5,0 0,5 -5,0 z M 175,35 l 5,0 0,5 -5,0 z M 185,35 l 5,0 0,5 -5,0 z M 195,35 l 5,0 0,5 -5,0 z M 200,35 l 5,0 0,5 -5,0 z M 205,35 l 5,0 0,5 -5,0 z M 210,35 l 5,0 0,5 -5,0 z M 215,35 l 5,0 0,5 -5,0 z M 220,35 l 5,0 0,5 -5,0 z M 225,35 l 5,0 0,5 -5,0 z M 55,40 l 5,0 0,5 -5,0 z M 60,40 l 5,0 0,5 -5,0 z M 70,40 l 5,0 0,5 -5,0 z M 75,40 l 5,0 0,5 -5,0 z M 85,40 l 5,0 0,5 -5,0 z M 90,40 l 5,0 0,5 -5,0 z M 105,40 l 5,0 0,5 -5,0 z M 125,40 l 5,0 0,5 -5,0 z M 130,40 l 5,0 0,5 -5,0 z M 145,40 l 5,0 0,5 -5,0 z M 155,40 l 5,0 0,5 -5,0 z M 160,40 l 5,0 0,5 -5,0 z M 165,40 l 5,0 0,5 -5,0 z M 185,40 l 5,0 0,5 -5,0 z M 5,45 l 5,0 0,5 -5,0 z M 10,45 l 5,0 0,5 -5,0 z M 15,45 l 5,0 0,5 -5,0 z M 20,45 l 5,0 0,5 -5,0 z M 25,45 l 5,0 0,5 -5,0 z M 35,45 l 5,0 0,5 -5,0 z M 40,45 l 5,0 0,5 -5,0 z M 45,45 l 5,0 0,5 -5,0 z M 60,45 l 5,0 0,5 -5,0 z M 65,45 l 5,0 0,5 -5,0 z M 70,45 l 5,0 0,5 -5,0 z M 80,45 l 5,0 0,5 -5,0 z M 85,45 l 5,0 0,5 -5,0 z M 90,45 l 5,0 0,5 -5,0 z M 95,45 l 5,0 0,5 -5,0 z M 100,45 l 5,0 0,5 -5,0 z M 105,45 l 5,0 0,5 -5,0 z M 110,45 l 5,0 0,5 -5,0 z M 115,45 l 5,0 0,5 -5,0 z M 120,45 l 5,0 0,5 -5,0 z M 125,45 l 5,0 0,5 -5,0 z M 130,45 l 5,0 0,5 -5,0 z M 150,45 l 5,0 0,5 -5,0 z M 155,45 l 5,0 0,5 -5,0 z M 160,45 l 5,0 0,5 -5,0 z M 170,45 l 5,0 0,5 -5,0 z M 180,45 l 5,0 0,5 -5,0 z M 190,45 l 5,0 0,5 -5,0 z M 200,45 l 5,0 0,5 -5,0 z M 210,45 l 5,0 0,5 -5,0 z M 220,45 l 5,0 0,5 -5,0 z M 20,50 l 5,0 0,5 -5,0 z M 40,50 l 5,0 0,5 -5,0 z M 45,50 l 5,0 0,5 -5,0 z M 50,50 l 5,0 0,5 -5,0 z M 60,50 l 5,0 0,5 -5,0 z M 75,50 l 5,0 0,5 -5,0 z M 105,50 l 5,0 0,5 -5,0 z M 110,50 l 5,0 0,5 -5,0 z M 130,50 l 5,0 0,5 -5,0 z M 145,50 l 5,0 0,5 -5,0 z M 150,50 l 5,0 0,5 -5,0 z M 155,50 l 5,0 0,5 -5,0 z M 180,50 l 5,0 0,5 -5,0 z M 185,50 l 5,0 0,5 -5,0 z M 190,50 l 5,0 0,5 -5,0 z M 215,50 l 5,0 0,5 -5,0 z M 225,50 l 5,0 0,5 -5,0 z M 35,55 l 5,0 0,5 -5,0 z M 45,55 l 5,0 0,5 -5,0 z M 50,55 l 5,0 0,5 -5,0 z M 60,55 l 5,0 0,5 -5,0 z M 65,55 l 5,0 0,5 -5,0 z M 70,55 l 5,0 0,5 -5,0 z M 75,55 l 5,0 0,5 -5,0 z M 80,55 l 5,0 0,5 -5,0 z M 85,55 l 5,0 0,5 -5,0 z M 90,55 l 5,0 0,5 -5,0 z M 95,55 l 5,0 0,5 -5,0 z M 105,55 l 5,0 0,5 -5,0 z M 110,55 l 5,0 0,5 -5,0 z M 115,55 l 5,0 0,5 -5,0 z M 120,55 l 5,0 0,5 -5,0 z M 125,55 l 5,0 0,5 -5,0 z M 130,55 l 5,0 0,5 -5,0 z M 135,55 l 5,0 0,5 -5,0 z M 145,55 l 5,0 0,5 -5,0 z M 150,55 l 5,0 0,5 -5,0 z M 160,55 l 5,0 0,5 -5,0 z M 175,55 l 5,0 0,5 -5,0 z M 195,55 l 5,0 0,5 -5,0 z M 205,55 l 5,0 0,5 -5,0 z M 210,55 l 5,0 0,5 -5,0 z M 5,60 l 5,0 0,5 -5,0 z M 15,60 l 5,0 0,5 -5,0 z M 20,60 l 5,0 0,5 -5,0 z M 30,60 l 5,0 0,5 -5,0 z M 40,60 l 5,0 0,5 -5,0 z M 55,60 l 5,0 0,5 -5,0 z M 70,60 l 5,0 0,5 -5,0 z M 85,60 l 5,0 0,5 -5,0 z M 90,60 l 5,0 0,5 -5,0 z M 100,60 l 5,0 0,5 -5,0 z M 110,60 l 5,0 0,5 -5,0 z M 120,60 l 5,0 0,5 -5,0 z M 125,60 l 5,0 0,5 -5,0 z M 135,60 l 5,0 0,5 -5,0 z M 140,60 l 5,0 0,5 -5,0 z M 145,60 l 5,0 0,5 -5,0 z M 155,60 l 5,0 0,5 -5,0 z M 160,60 l 5,0 0,5 -5,0 z M 180,60 l 5,0 0,5 -5,0 z M 185,60 l 5,0 0,5 -5,0 z M 195,60 l 5,0 0,5 -5,0 z M 200,60 l 5,0 0,5 -5,0 z M 210,60 l 5,0 0,5 -5,0 z M 215,60 l 5,0 0,5 -5,0 z M 220,60 l 5,0 0,5 -5,0 z M 225,60 l 5,0 0,5 -5,0 z M 15,65 l 5,0 0,5 -5,0 z M 20,65 l 5,0 0,5 -5,0 z M 35,65 l 5,0 0,5 -5,0 z M 40,65 l 5,0 0,5 -5,0 z M 45,65 l 5,0 0,5 -5,0 z M 55,65 l 5,0 0,5 -5,0 z M 60,65 l 5,0 0,5 -5,0 z M 70,65 l 5,0 0,5 -5,0 z M 80,65 l 5,0 0,5 -5,0 z M 85,65 l 5,0 0,5 -5,0 z M 90,65 l 5,0 0,5 -5,0 z M 95,65 l 5,0 0,5 -5,0 z M 100,65 l 5,0 0,5 -5,0 z M 110,65 l 5,0 0,5 -5,0 z M 130,65 l 5,0 0,5 -5,0 z M 135,65 l 5,0 0,5 -5,0 z M 160,65 l 5,0 0,5 -5,0 z M 195,65 l 5,0 0,5 -5,0 z M 200,65 l 5,0 0,5 -5,0 z M 220,65 l 5,0 0,5 -5,0 z M 225,65 l 5,0 0,5 -5,0 z M 5,70 l 5,0 0,5 -5,0 z M 10,70 l 5,0 0,5 -5,0 z M 30,70 l 5,0 0,5 -5,0 z M 75,70 l 5,0 0,5 -5,0 z M 100,70 l 5,0 0,5 -5,0 z M 115,70 l 5,0 0,5 -5,0 z M 125,70 l 5,0 0,5 -5,0 z M 130,70 l 5,0 0,5 -5,0 z M 150,70 l 5,0 0,5 -5,0 z M 155,70 l 5,0 0,5 -5,0 z M 165,70 l 5,0 0,5 -5,0 z M 180,70 l 5,0 0,5 -5,0 z M 185,70 l 5,0 0,5 -5,0 z M 190,70 l 5,0 0,5 -5,0 z M 215,70 l 5,0 0,5 -5,0 z M 225,70 l 5,0 0,5 -5,0 z M 10,75 l 5,0 0,5 -5,0 z M 15,75 l 5,0 0,5 -5,0 z M 20,75 l 5,0 0,5 -5,0 z M 25,75 l 5,0 0,5 -5,0 z M 35,75 l 5,0 0,5 -5,0 z M 50,75 l 5,0 0,5 -5,0 z M 55,75 l 5,0 0,5 -5,0 z M 60,75 l 5,0 0,5 -5,0 z M 70,75 l 5,0 0,5 -5,0 z M 75,75 l 5,0 0,5 -5,0 z M 110,75 l 5,0 0,5 -5,0 z M 115,75 l 5,0 0,5 -5,0 z M 125,75 l 5,0 0,5 -5,0 z M 135,75 l 5,0 0,5 -5,0 z M 140,75 l 5,0 0,5 -5,0 z M 145,75 l 5,0 0,5 -5,0 z M 150,75 l 5,0 0,5 -5,0 z M 165,75 l 5,0 0,5 -5,0 z M 175,75 l 5,0 0,5 -5,0 z M 180,75 l 5,0 0,5 -5,0 z M 195,75 l 5,0 0,5 -5,0 z M 205,75 l 5,0 0,5 -5,0 z M 215,75 l 5,0 0,5 -5,0 z M 220,75 l 5,0 0,5 -5,0 z M 25,80 l 5,0 0,5 -5,0 z M 40,80 l 5,0 0,5 -5,0 z M 55,80 l 5,0 0,5 -5,0 z M 65,80 l 5,0 0,5 -5,0 z M 70,80 l 5,0 0,5 -5,0 z M 95,80 l 5,0 0,5 -5,0 z M 125,80 l 5,0 0,5 -5,0 z M 140,80 l 5,0 0,5 -5,0 z M 145,80 l 5,0 0,5 -5,0 z M 155,80 l 5,0 0,5 -5,0 z M 165,80 l 5,0 0,5 -5,0 z M 185,80 l 5,0 0,5 -5,0 z M 190,80 l 5,0 0,5 -5,0 z M 200,80 l 5,0 0,5 -5,0 z M 210,80 l 5,0 0,5 -5,0 z M 215,80 l 5,0 0,5 -5,0 z M 220,80 l 5,0 0,5 -5,0 z M 225,80 l 5,0 0,5 -5,0 z M 10,85 l 5,0 0,5 -5,0 z M 15,85 l 5,0 0,5 -5,0 z M 35,85 l 5,0 0,5 -5,0 z M 40,85 l 5,0 0,5 -5,0 z M 45,85 l 5,0 0,5 -5,0 z M 55,85 l 5,0 0,5 -5,0 z M 60,85 l 5,0 0,5 -5,0 z M 80,85 l 5,0 0,5 -5,0 z M 85,85 l 5,0 0,5 -5,0 z M 90,85 l 5,0 0,5 -5,0 z M 95,85 l 5,0 0,5 -5,0 z M 110,85 l 5,0 0,5 -5,0 z M 115,85 l 5,0 0,5 -5,0 z M 125,85 l 5,0 0,5 -5,0 z M 135,85 l 5,0 0,5 -5,0 z M 160,85 l 5,0 0,5 -5,0 z M 175,85 l 5,0 0,5 -5,0 z M 190,85 l 5,0 0,5 -5,0 z M 215,85 l 5,0 0,5 -5,0 z M 5,90 l 5,0 0,5 -5,0 z M 15,90 l 5,0 0,5 -5,0 z M 20,90 l 5,0 0,5 -5,0 z M 25,90 l 5,0 0,5 -5,0 z M 40,90 l 5,0 0,5 -5,0 z M 45,90 l 5,0 0,5 -5,0 z M 50,90 l 5,0 0,5 -5,0 z M 55,90 l 5,0 0,5 -5,0 z M 65,90 l 5,0 0,5 -5,0 z M 80,90 l 5,0 0,5 -5,0 z M 100,90 l 5,0 0,5 -5,0 z M 105,90 l 5,0 0,5 -5,0 z M 140,90 l 5,0 0,5 -5,0 z M 150,90 l 5,0 0,5 -5,0 z M 155,90 l 5,0 0,5 -5,0 z M 165,90 l 5,0 0,5 -5,0 z M 180,90 l 5,0 0,5 -5,0 z M 185,90 l 5,0 0,5 -5,0 z M 190,90 l 5,0 0,5 -5,0 z M 200,90 l 5,0 0,5 -5,0 z M 210,90 l 5,0 0,5 -5,0 z M 215,90 l 5,0 0,5 -5,0 z M 225,90 l 5,0 0,5 -5,0 z M 10,95 l 5,0 0,5 -5,0 z M 15,95 l 5,0 0,5 -5,0 z M 20,95 l 5,0 0,5 -5,0 z M 25,95 l 5,0 0,5 -5,0 z M 30,95 l 5,0 0,5 -5,0 z M 35,95 l 5,0 0,5 -5,0 z M 40,95 l 5,0 0,5 -5,0 z M 50,95 l 5,0 0,5 -5,0 z M 55,95 l 5,0 0,5 -5,0 z M 65,95 l 5,0 0,5 -5,0 z M 70,95 l 5,0 0,5 -5,0 z M 85,95 l 5,0 0,5 -5,0 z M 90,95 l 5,0 0,5 -5,0 z M 105,95 l 5,0 0,5 -5,0 z M 110,95 l 5,0 0,5 -5,0 z M 120,95 l 5,0 0,5 -5,0 z M 125,95 l 5,0 0,5 -5,0 z M 145,95 l 5,0 0,5 -5,0 z M 170,95 l 5,0 0,5 -5,0 z M 175,95 l 5,0 0,5 -5,0 z M 180,95 l 5,0 0,5 -5,0 z M 195,95 l 5,0 0,5 -5,0 z M 200,95 l 5,0 0,5 -5,0 z M 210,95 l 5,0 0,5 -5,0 z M 215,95 l 5,0 0,5 -5,0 z M 220,95 l 5,0 0,5 -5,0 z M 5,100 l 5,0 0,5 -5,0 z M 20,100 l 5,0 0,5 -5,0 z M 30,100 l 5,0 0,5 -5,0 z M 40,100 l 5,0 0,5 -5,0 z M 45,100 l 5,0 0,5 -5,0 z M 50,100 l 5,0 0,5 -5,0 z M 60,100 l 5,0 0,5 -5,0 z M 65,100 l 5,0 0,5 -5,0 z M 70,100 l 5,0 0,5 -5,0 z M 90,100 l 5,0 0,5 -5,0 z M 100,100 l 5,0 0,5 -5,0 z M 120,100 l 5,0 0,5 -5,0 z M 125,100 l 5,0 0,5 -5,0 z M 130,100 l 5,0 0,5 -5,0 z M 135,100 l 5,0 0,5 -5,0 z M 145,100 l 5,0 0,5 -5,0 z M 155,100 l 5,0 0,5 -5,0 z M 170,100 l 5,0 0,5 -5,0 z M 180,100 l 5,0 0,5 -5,0 z M 200,100 l 5,0 0,5 -5,0 z M 205,100 l 5,0 0,5 -5,0 z M 210,100 l 5,0 0,5 -5,0 z M 215,100 l 5,0 0,5 -5,0 z M 220,100 l 5,0 0,5 -5,0 z M 5,105 l 5,0 0,5 -5,0 z M 20,105 l 5,0 0,5 -5,0 z M 25,105 l 5,0 0,5 -5,0 z M 30,105 l 5,0 0,5 -5,0 z M 35,105 l 5,0 0,5 -5,0 z M 40,105 l 5,0 0,5 -5,0 z M 45,105 l 5,0 0,5 -5,0 z M 50,105 l 5,0 0,5 -5,0 z M 55,105 l 5,0 0,5 -5,0 z M 60,105 l 5,0 0,5 -5,0 z M 65,105 l 5,0 0,5 -5,0 z M 70,105 l 5,0 0,5 -5,0 z M 80,105 l 5,0 0,5 -5,0 z M 85,105 l 5,0 0,5 -5,0 z M 90,105 l 5,0 0,5 -5,0 z M 95,105 l 5,0 0,5 -5,0 z M 100,105 l 5,0 0,5 -5,0 z M 105,105 l 5,0 0,5 -5,0 z M 110,105 l 5,0 0,5 -5,0 z M 115,105 l 5,0 0,5 -5,0 z M 120,105 l 5,0 0,5 -5,0 z M 125,105 l 5,0 0,5 -5,0 z M 130,105 l 5,0 0,5 -5,0 z M 150,105 l 5,0 0,5 -5,0 z M 175,105 l 5,0 0,5 -5,0 z M 185,105 l 5,0 0,5 -5,0 z M 190,105 l 5,0 0,5 -5,0 z M 195,105 l 5,0 0,5 -5,0 z M 200,105 l 5,0 0,5 -5,0 z M 205,105 l 5,0 0,5 -5,0 z M 210,105 l 5,0 0,5 -5,0 z M 220,105 l 5,0 0,5 -5,0 z M 15,110 l 5,0 0,5 -5,0 z M 20,110 l 5,0 0,5 -5,0 z M 25,110 l 5,0 0,5 -5,0 z M 45,110 l 5,0 0,5 -5,0 z M 75,110 l 5,0 0,5 -5,0 z M 90,110 l 5,0 0,5 -5,0 z M 105,110 l 5,0 0,5 -5,0 z M 125,110 l 5,0 0,5 -5,0 z M 140,110 l 5,0 0,5 -5,0 z M 145,110 l 5,0 0,5 -5,0 z M 150,110 l 5,0 0,5 -5,0 z M 155,110 l 5,0 0,5 -5,0 z M 165,110 l 5,0 0,5 -5,0 z M 180,110 l 5,0 0,5 -5,0 z M 185,110 l 5,0 0,5 -5,0 z M 205,110 l 5,0 0,5 -5,0 z M 225,110 l 5,0 0,5 -5,0 z M 25,115 l 5,0 0,5 -5,0 z M 35,115 l 5,0 0,5 -5,0 z M 45,115 l 5,0 0,5 -5,0 z M 50,115 l 5,0 0,5 -5,0 z M 55,115 l 5,0 0,5 -5,0 z M 60,115 l 5,0 0,5 -5,0 z M 70,115 l 5,0 0,5 -5,0 z M 75,115 l 5,0 0,5 -5,0 z M 80,115 l 5,0 0,5 -5,0 z M 90,115 l 5,0 0,5 -5,0 z M 95,115 l 5,0 0,5 -5,0 z M 105,115 l 5,0 0,5 -5,0 z M 115,115 l 5,0 0,5 -5,0 z M 125,115 l 5,0 0,5 -5,0 z M 130,115 l 5,0 0,5 -5,0 z M 135,115 l 5,0 0,5 -5,0 z M 140,115 l 5,0 0,5 -5,0 z M 145,115 l 5,0 0,5 -5,0 z M 165,115 l 5,0 0,5 -5,0 z M 175,115 l 5,0 0,5 -5,0 z M 180,115 l 5,0 0,5 -5,0 z M 185,115 l 5,0 0,5 -5,0 z M 195,115 l 5,0 0,5 -5,0 z M 205,115 l 5,0 0,5 -5,0 z M 210,115 l 5,0 0,5 -5,0 z M 220,115 l 5,0 0,5 -5,0 z M 5,120 l 5,0 0,5 -5,0 z M 15,120 l 5,0 0,5 -5,0 z M 20,120 l 5,0 0,5 -5,0 z M 25,120 l 5,0 0,5 -5,0 z M 45,120 l 5,0 0,5 -5,0 z M 60,120 l 5,0 0,5 -5,0 z M 65,120 l 5,0 0,5 -5,0 z M 75,120 l 5,0 0,5 -5,0 z M 80,120 l 5,0 0,5 -5,0 z M 85,120 l 5,0 0,5 -5,0 z M 90,120 l 5,0 0,5 -5,0 z M 95,120 l 5,0 0,5 -5,0 z M 100,120 l 5,0 0,5 -5,0 z M 105,120 l 5,0 0,5 -5,0 z M 125,120 l 5,0 0,5 -5,0 z M 135,120 l 5,0 0,5 -5,0 z M 140,120 l 5,0 0,5 -5,0 z M 145,120 l 5,0 0,5 -5,0 z M 150,120 l 5,0 0,5 -5,0 z M 155,120 l 5,0 0,5 -5,0 z M 160,120 l 5,0 0,5 -5,0 z M 165,120 l 5,0 0,5 -5,0 z M 170,120 l 5,0 0,5 -5,0 z M 185,120 l 5,0 0,5 -5,0 z M 205,120 l 5,0 0,5 -5,0 z M 210,120 l 5,0 0,5 -5,0 z M 215,120 l 5,0 0,5 -5,0 z M 220,120 l 5,0 0,5 -5,0 z M 5,125 l 5,0 0,5 -5,0 z M 20,125 l 5,0 0,5 -5,0 z M 25,125 l 5,0 0,5 -5,0 z M 30,125 l 5,0 0,5 -5,0 z M 35,125 l 5,0 0,5 -5,0 z M 40,125 l 5,0 0,5 -5,0 z M 45,125 l 5,0 0,5 -5,0 z M 60,125 l 5,0 0,5 -5,0 z M 65,125 l 5,0 0,5 -5,0 z M 70,125 l 5,0 0,5 -5,0 z M 75,125 l 5,0 0,5 -5,0 z M 80,125 l 5,0 0,5 -5,0 z M 85,125 l 5,0 0,5 -5,0 z M 90,125 l 5,0 0,5 -5,0 z M 95,125 l 5,0 0,5 -5,0 z M 100,125 l 5,0 0,5 -5,0 z M 105,125 l 5,0 0,5 -5,0 z M 110,125 l 5,0 0,5 -5,0 z M 115,125 l 5,0 0,5 -5,0 z M 120,125 l 5,0 0,5 -5,0 z M 125,125 l 5,0 0,5 -5,0 z M 135,125 l 5,0 0,5 -5,0 z M 150,125 l 5,0 0,5 -5,0 z M 155,125 l 5,0 0,5 -5,0 z M 160,125 l 5,0 0,5 -5,0 z M 180,125 l 5,0 0,5 -5,0 z M 185,125 l 5,0 0,5 -5,0 z M 190,125 l 5,0 0,5 -5,0 z M 195,125 l 5,0 0,5 -5,0 z M 200,125 l 5,0 0,5 -5,0 z M 205,125 l 5,0 0,5 -5,0 z M 5,130 l 5,0 0,5 -5,0 z M 10,130 l 5,0 0,5 -5,0 z M 20,130 l 5,0 0,5 -5,0 z M 25,130 l 5,0 0,5 -5,0 z M 30,130 l 5,0 0,5 -5,0 z M 50,130 l 5,0 0,5 -5,0 z M 65,130 l 5,0 0,5 -5,0 z M 105,130 l 5,0 0,5 -5,0 z M 115,130 l 5,0 0,5 -5,0 z M 125,130 l 5,0 0,5 -5,0 z M 155,130 l 5,0 0,5 -5,0 z M 160,130 l 5,0 0,5 -5,0 z M 185,130 l 5,0 0,5 -5,0 z M 190,130 l 5,0 0,5 -5,0 z M 215,130 l 5,0 0,5 -5,0 z M 225,130 l 5,0 0,5 -5,0 z M 10,135 l 5,0 0,5 -5,0 z M 15,135 l 5,0 0,5 -5,0 z M 30,135 l 5,0 0,5 -5,0 z M 35,135 l 5,0 0,5 -5,0 z M 40,135 l 5,0 0,5 -5,0 z M 50,135 l 5,0 0,5 -5,0 z M 60,135 l 5,0 0,5 -5,0 z M 65,135 l 5,0 0,5 -5,0 z M 70,135 l 5,0 0,5 -5,0 z M 75,135 l 5,0 0,5 -5,0 z M 80,135 l 5,0 0,5 -5,0 z M 85,135 l 5,0 0,5 -5,0 z M 95,135 l 5,0 0,5 -5,0 z M 110,135 l 5,0 0,5 -5,0 z M 135,135 l 5,0 0,5 -5,0 z M 175,135 l 5,0 0,5 -5,0 z M 185,135 l 5,0 0,5 -5,0 z M 190,135 l 5,0 0,5 -5,0 z M 205,135 l 5,0 0,5 -5,0 z M 210,135 l 5,0 0,5 -5,0 z M 220,135 l 5,0 0,5 -5,0 z M 10,140 l 5,0 0,5 -5,0 z M 20,140 l 5,0 0,5 -5,0 z M 55,140 l 5,0 0,5 -5,0 z M 65,140 l 5,0 0,5 -5,0 z M 75,140 l 5,0 0,5 -5,0 z M 85,140 l 5,0 0,5 -5,0 z M 105,140 l 5,0 0,5 -5,0 z M 115,140 l 5,0 0,5 -5,0 z M 125,140 l 5,0 0,5 -5,0 z M 140,140 l 5,0 0,5 -5,0 z M 150,140 l 5,0 0,5 -5,0 z M 170,140 l 5,0 0,5 -5,0 z M 180,140 l 5,0 0,5 -5,0 z M 195,140 l 5,0 0,5 -5,0 z M 205,140 l 5,0 0,5 -5,0 z M 210,140 l 5,0 0,5 -5,0 z M 215,140 l 5,0 0,5 -5,0 z M 220,140 l 5,0 0,5 -5,0 z M 15,145 l 5,0 0,5 -5,0 z M 35,145 l 5,0 0,5 -5,0 z M 40,145 l 5,0 0,5 -5,0 z M 70,145 l 5,0 0,5 -5,0 z M 80,145 l 5,0 0,5 -5,0 z M 85,145 l 5,0 0,5 -5,0 z M 90,145 l 5,0 0,5 -5,0 z M 95,145 l 5,0 0,5 -5,0 z M 105,145 l 5,0 0,5 -5,0 z M 120,145 l 5,0 0,5 -5,0 z M 125,145 l 5,0 0,5 -5,0 z M 130,145 l 5,0 0,5 -5,0 z M 140,145 l 5,0 0,5 -5,0 z M 150,145 l 5,0 0,5 -5,0 z M 175,145 l 5,0 0,5 -5,0 z M 190,145 l 5,0 0,5 -5,0 z M 195,145 l 5,0 0,5 -5,0 z M 200,145 l 5,0 0,5 -5,0 z M 205,145 l 5,0 0,5 -5,0 z M 210,145 l 5,0 0,5 -5,0 z M 225,145 l 5,0 0,5 -5,0 z M 5,150 l 5,0 0,5 -5,0 z M 20,150 l 5,0 0,5 -5,0 z M 25,150 l 5,0 0,5 -5,0 z M 30,150 l 5,0 0,5 -5,0 z M 45,150 l 5,0 0,5 -5,0 z M 50,150 l 5,0 0,5 -5,0 z M 60,150 l 5,0 0,5 -5,0 z M 65,150 l 5,0 0,5 -5,0 z M 75,150 l 5,0 0,5 -5,0 z M 100,150 l 5,0 0,5 -5,0 z M 105,150 l 5,0 0,5 -5,0 z M 110,150 l 5,0 0,5 -5,0 z M 115,150 l 5,0 0,5 -5,0 z M 130,150 l 5,0 0,5 -5,0 z M 140,150 l 5,0 0,5 -5,0 z M 145,150 l 5,0 0,5 -5,0 z M 150,150 l 5,0 0,5 -5,0 z M 155,150 l 5,0 0,5 -5,0 z M 160,150 l 5,0 0,5 -5,0 z M 170,150 l 5,0 0,5 -5,0 z M 180,150 l 5,0 0,5 -5,0 z M 185,150 l 5,0 0,5 -5,0 z M 195,150 l 5,0 0,5 -5,0 z M 200,150 l 5,0 0,5 -5,0 z M 225,150 l 5,0 0,5 -5,0 z M 15,155 l 5,0 0,5 -5,0 z M 20,155 l 5,0 0,5 -5,0 z M 30,155 l 5,0 0,5 -5,0 z M 35,155 l 5,0 0,5 -5,0 z M 40,155 l 5,0 0,5 -5,0 z M 50,155 l 5,0 0,5 -5,0 z M 65,155 l 5,0 0,5 -5,0 z M 85,155 l 5,0 0,5 -5,0 z M 90,155 l 5,0 0,5 -5,0 z M 110,155 l 5,0 0,5 -5,0 z M 115,155 l 5,0 0,5 -5,0 z M 140,155 l 5,0 0,5 -5,0 z M 145,155 l 5,0 0,5 -5,0 z M 160,155 l 5,0 0,5 -5,0 z M 165,155 l 5,0 0,5 -5,0 z M 170,155 l 5,0 0,5 -5,0 z M 175,155 l 5,0 0,5 -5,0 z M 185,155 l 5,0 0,5 -5,0 z M 190,155 l 5,0 0,5 -5,0 z M 205,155 l 5,0 0,5 -5,0 z M 215,155 l 5,0 0,5 -5,0 z M 220,155 l 5,0 0,5 -5,0 z M 20,160 l 5,0 0,5 -5,0 z M 25,160 l 5,0 0,5 -5,0 z M 40,160 l 5,0 0,5 -5,0 z M 45,160 l 5,0 0,5 -5,0 z M 50,160 l 5,0 0,5 -5,0 z M 55,160 l 5,0 0,5 -5,0 z M 60,160 l 5,0 0,5 -5,0 z M 70,160 l 5,0 0,5 -5,0 z M 80,160 l 5,0 0,5 -5,0 z M 85,160 l 5,0 0,5 -5,0 z M 100,160 l 5,0 0,5 -5,0 z M 120,160 l 5,0 0,5 -5,0 z M 125,160 l 5,0 0,5 -5,0 z M 135,160 l 5,0 0,5 -5,0 z M 140,160 l 5,0 0,5 -5,0 z M 145,160 l 5,0 0,5 -5,0 z M 155,160 l 5,0 0,5 -5,0 z M 165,160 l 5,0 0,5 -5,0 z M 170,160 l 5,0 0,5 -5,0 z M 180,160 l 5,0 0,5 -5,0 z M 195,160 l 5,0 0,5 -5,0 z M 210,160 l 5,0 0,5 -5,0 z M 215,160 l 5,0 0,5 -5,0 z M 220,160 l 5,0 0,5 -5,0 z M 225,160 l 5,0 0,5 -5,0 z M 5,165 l 5,0 0,5 -5,0 z M 15,165 l 5,0 0,5 -5,0 z M 30,165 l 5,0 0,5 -5,0 z M 35,165 l 5,0 0,5 -5,0 z M 45,165 l 5,0 0,5 -5,0 z M 50,165 l 5,0 0,5 -5,0 z M 55,165 l 5,0 0,5 -5,0 z M 65,165 l 5,0 0,5 -5,0 z M 80,165 l 5,0 0,5 -5,0 z M 85,165 l 5,0 0,5 -5,0 z M 90,165 l 5,0 0,5 -5,0 z M 95,165 l 5,0 0,5 -5,0 z M 100,165 l 5,0 0,5 -5,0 z M 105,165 l 5,0 0,5 -5,0 z M 110,165 l 5,0 0,5 -5,0 z M 115,165 l 5,0 0,5 -5,0 z M 120,165 l 5,0 0,5 -5,0 z M 125,165 l 5,0 0,5 -5,0 z M 155,165 l 5,0 0,5 -5,0 z M 160,165 l 5,0 0,5 -5,0 z M 170,165 l 5,0 0,5 -5,0 z M 175,165 l 5,0 0,5 -5,0 z M 190,165 l 5,0 0,5 -5,0 z M 195,165 l 5,0 0,5 -5,0 z M 200,165 l 5,0 0,5 -5,0 z M 205,165 l 5,0 0,5 -5,0 z M 220,165 l 5,0 0,5 -5,0 z M 225,165 l 5,0 0,5 -5,0 z M 25,170 l 5,0 0,5 -5,0 z M 30,170 l 5,0 0,5 -5,0 z M 40,170 l 5,0 0,5 -5,0 z M 45,170 l 5,0 0,5 -5,0 z M 50,170 l 5,0 0,5 -5,0 z M 60,170 l 5,0 0,5 -5,0 z M 70,170 l 5,0 0,5 -5,0 z M 100,170 l 5,0 0,5 -5,0 z M 115,170 l 5,0 0,5 -5,0 z M 120,170 l 5,0 0,5 -5,0 z M 140,170 l 5,0 0,5 -5,0 z M 145,170 l 5,0 0,5 -5,0 z M 150,170 l 5,0 0,5 -5,0 z M 155,170 l 5,0 0,5 -5,0 z M 180,170 l 5,0 0,5 -5,0 z M 215,170 l 5,0 0,5 -5,0 z M 220,170 l 5,0 0,5 -5,0 z M 25,175 l 5,0 0,5 -5,0 z M 35,175 l 5,0 0,5 -5,0 z M 40,175 l 5,0 0,5 -5,0 z M 55,175 l 5,0 0,5 -5,0 z M 70,175 l 5,0 0,5 -5,0 z M 100,175 l 5,0 0,5 -5,0 z M 105,175 l 5,0 0,5 -5,0 z M 115,175 l 5,0 0,5 -5,0 z M 130,175 l 5,0 0,5 -5,0 z M 135,175 l 5,0 0,5 -5,0 z M 155,175 l 5,0 0,5 -5,0 z M 165,175 l 5,0 0,5 -5,0 z M 170,175 l 5,0 0,5 -5,0 z M 175,175 l 5,0 0,5 -5,0 z M 180,175 l 5,0 0,5 -5,0 z M 190,175 l 5,0 0,5 -5,0 z M 205,175 l 5,0 0,5 -5,0 z M 210,175 l 5,0 0,5 -5,0 z M 220,175 l 5,0 0,5 -5,0 z M 10,180 l 5,0 0,5 -5,0 z M 15,180 l 5,0 0,5 -5,0 z M 20,180 l 5,0 0,5 -5,0 z M 25,180 l 5,0 0,5 -5,0 z M 45,180 l 5,0 0,5 -5,0 z M 50,180 l 5,0 0,5 -5,0 z M 55,180 l 5,0 0,5 -5,0 z M 60,180 l 5,0 0,5 -5,0 z M 70,180 l 5,0 0,5 -5,0 z M 75,180 l 5,0 0,5 -5,0 z M 90,180 l 5,0 0,5 -5,0 z M 105,180 l 5,0 0,5 -5,0 z M 115,180 l 5,0 0,5 -5,0 z M 125,180 l 5,0 0,5 -5,0 z M 145,180 l 5,0 0,5 -5,0 z M 150,180 l 5,0 0,5 -5,0 z M 165,180 l 5,0 0,5 -5,0 z M 175,180 l 5,0 0,5 -5,0 z M 195,180 l 5,0 0,5 -5,0 z M 200,180 l 5,0 0,5 -5,0 z M 215,180 l 5,0 0,5 -5,0 z M 220,180 l 5,0 0,5 -5,0 z M 225,180 l 5,0 0,5 -5,0 z M 5,185 l 5,0 0,5 -5,0 z M 20,185 l 5,0 0,5 -5,0 z M 25,185 l 5,0 0,5 -5,0 z M 35,185 l 5,0 0,5 -5,0 z M 40,185 l 5,0 0,5 -5,0 z M 45,185 l 5,0 0,5 -5,0 z M 50,185 l 5,0 0,5 -5,0 z M 70,185 l 5,0 0,5 -5,0 z M 80,185 l 5,0 0,5 -5,0 z M 85,185 l 5,0 0,5 -5,0 z M 95,185 l 5,0 0,5 -5,0 z M 100,185 l 5,0 0,5 -5,0 z M 105,185 l 5,0 0,5 -5,0 z M 110,185 l 5,0 0,5 -5,0 z M 115,185 l 5,0 0,5 -5,0 z M 120,185 l 5,0 0,5 -5,0 z M 125,185 l 5,0 0,5 -5,0 z M 140,185 l 5,0 0,5 -5,0 z M 160,185 l 5,0 0,5 -5,0 z M 170,185 l 5,0 0,5 -5,0 z M 175,185 l 5,0 0,5 -5,0 z M 185,185 l 5,0 0,5 -5,0 z M 190,185 l 5,0 0,5 -5,0 z M 195,185 l 5,0 0,5 -5,0 z M 200,185 l 5,0 0,5 -5,0 z M 205,185 l 5,0 0,5 -5,0 z M 220,185 l 5,0 0,5 -5,0 z M 225,185 l 5,0 0,5 -5,0 z M 45,190 l 5,0 0,5 -5,0 z M 50,190 l 5,0 0,5 -5,0 z M 55,190 l 5,0 0,5 -5,0 z M 60,190 l 5,0 0,5 -5,0 z M 65,190 l 5,0 0,5 -5,0 z M 90,190 l 5,0 0,5 -5,0 z M 105,190 l 5,0 0,5 -5,0 z M 125,190 l 5,0 0,5 -5,0 z M 130,190 l 5,0 0,5 -5,0 z M 140,190 l 5,0 0,5 -5,0 z M 150,190 l 5,0 0,5 -5,0 z M 155,190 l 5,0 0,5 -5,0 z M 160,190 l 5,0 0,5 -5,0 z M 165,190 l 5,0 0,5 -5,0 z M 185,190 l 5,0 0,5 -5,0 z M 205,190 l 5,0 0,5 -5,0 z M 210,190 l 5,0 0,5 -5,0 z M 215,190 l 5,0 0,5 -5,0 z M 225,190 l 5,0 0,5 -5,0 z M 5,195 l 5,0 0,5 -5,0 z M 10,195 l 5,0 0,5 -5,0 z M 15,195 l 5,0 0,5 -5,0 z M 20,195 l 5,0 0,5 -5,0 z M 25,195 l 5,0 0,5 -5,0 z M 30,195 l 5,0 0,5 -5,0 z M 35,195 l 5,0 0,5 -5,0 z M 45,195 l 5,0 0,5 -5,0 z M 55,195 l 5,0 0,5 -5,0 z M 60,195 l 5,0 0,5 -5,0 z M 65,195 l 5,0 0,5 -5,0 z M 70,195 l 5,0 0,5 -5,0 z M 75,195 l 5,0 0,5 -5,0 z M 80,195 l 5,0 0,5 -5,0 z M 85,195 l 5,0 0,5 -5,0 z M 90,195 l 5,0 0,5 -5,0 z M 95,195 l 5,0 0,5 -5,0 z M 105,195 l 5,0 0,5 -5,0 z M 115,195 l 5,0 0,5 -5,0 z M 125,195 l 5,0 0,5 -5,0 z M 135,195 l 5,0 0,5 -5,0 z M 145,195 l 5,0 0,5 -5,0 z M 160,195 l 5,0 0,5 -5,0 z M 165,195 l 5,0 0,5 -5,0 z M 170,195 l 5,0 0,5 -5,0 z M 175,195 l 5,0 0,5 -5,0 z M 180,195 l 5,0 0,5 -5,0 z M 185,195 l 5,0 0,5 -5,0 z M 195,195 l 5,0 0,5 -5,0 z M 205,195 l 5,0 0,5 -5,0 z M 210,195 l 5,0 0,5 -5,0 z M 215,195 l 5,0 0,5 -5,0 z M 220,195 l 5,0 0,5 -5,0 z M 5,200 l 5,0 0,5 -5,0 z M 35,200 l 5,0 0,5 -5,0 z M 50,200 l 5,0 0,5 -5,0 z M 55,200 l 5,0 0,5 -5,0 z M 65,200 l 5,0 0,5 -5,0 z M 75,200 l 5,0 0,5 -5,0 z M 80,200 l 5,0 0,5 -5,0 z M 85,200 l 5,0 0,5 -5,0 z M 90,200 l 5,0 0,5 -5,0 z M 105,200 l 5,0 0,5 -5,0 z M 125,200 l 5,0 0,5 -5,0 z M 130,200 l 5,0 0,5 -5,0 z M 145,200 l 5,0 0,5 -5,0 z M 150,200 l 5,0 0,5 -5,0 z M 155,200 l 5,0 0,5 -5,0 z M 185,200 l 5,0 0,5 -5,0 z M 205,200 l 5,0 0,5 -5,0 z M 210,200 l 5,0 0,5 -5,0 z M 215,200 l 5,0 0,5 -5,0 z M 220,200 l 5,0 0,5 -5,0 z M 225,200 l 5,0 0,5 -5,0 z M 5,205 l 5,0 0,5 -5,0 z M 15,205 l 5,0 0,5 -5,0 z M 20,205 l 5,0 0,5 -5,0 z M 25,205 l 5,0 0,5 -5,0 z M 35,205 l 5,0 0,5 -5,0 z M 45,205 l 5,0 0,5 -5,0 z M 55,205 l 5,0 0,5 -5,0 z M 60,205 l 5,0 0,5 -5,0 z M 65,205 l 5,0 0,5 -5,0 z M 70,205 l 5,0 0,5 -5,0 z M 75,205 l 5,0 0,5 -5,0 z M 80,205 l 5,0 0,5 -5,0 z M 85,205 l 5,0 0,5 -5,0 z M 90,205 l 5,0 0,5 -5,0 z M 95,205 l 5,0 0,5 -5,0 z M 105,205 l 5,0 0,5 -5,0 z M 110,205 l 5,0 0,5 -5,0 z M 115,205 l 5,0 0,5 -5,0 z M 120,205 l 5,0 0,5 -5,0 z M 125,205 l 5,0 0,5 -5,0 z M 135,205 l 5,0 0,5 -5,0 z M 155,205 l 5,0 0,5 -5,0 z M 160,205 l 5,0 0,5 -5,0 z M 180,205 l 5,0 0,5 -5,0 z M 185,205 l 5,0 0,5 -5,0 z M 190,205 l 5,0 0,5 -5,0 z M 195,205 l 5,0 0,5 -5,0 z M 200,205 l 5,0 0,5 -5,0 z M 205,205 l 5,0 0,5 -5,0 z M 220,205 l 5,0 0,5 -5,0 z M 5,210 l 5,0 0,5 -5,0 z M 15,210 l 5,0 0,5 -5,0 z M 20,210 l 5,0 0,5 -5,0 z M 25,210 l 5,0 0,5 -5,0 z M 35,210 l 5,0 0,5 -5,0 z M 45,210 l 5,0 0,5 -5,0 z M 65,210 l 5,0 0,5 -5,0 z M 100,210 l 5,0 0,5 -5,0 z M 120,210 l 5,0 0,5 -5,0 z M 125,210 l 5,0 0,5 -5,0 z M 150,210 l 5,0 0,5 -5,0 z M 155,210 l 5,0 0,5 -5,0 z M 160,210 l 5,0 0,5 -5,0 z M 165,210 l 5,0 0,5 -5,0 z M 170,210 l 5,0 0,5 -5,0 z M 190,210 l 5,0 0,5 -5,0 z M 200,210 l 5,0 0,5 -5,0 z M 205,210 l 5,0 0,5 -5,0 z M 210,210 l 5,0 0,5 -5,0 z M 225,210 l 5,0 0,5 -5,0 z M 5,215 l 5,0 0,5 -5,0 z M 15,215 l 5,0 0,5 -5,0 z M 20,215 l 5,0 0,5 -5,0 z M 25,215 l 5,0 0,5 -5,0 z M 35,215 l 5,0 0,5 -5,0 z M 45,215 l 5,0 0,5 -5,0 z M 60,215 l 5,0 0,5 -5,0 z M 65,215 l 5,0 0,5 -5,0 z M 100,215 l 5,0 0,5 -5,0 z M 105,215 l 5,0 0,5 -5,0 z M 110,215 l 5,0 0,5 -5,0 z M 115,215 l 5,0 0,5 -5,0 z M 120,215 l 5,0 0,5 -5,0 z M 125,215 l 5,0 0,5 -5,0 z M 130,215 l 5,0 0,5 -5,0 z M 135,215 l 5,0 0,5 -5,0 z M 160,215 l 5,0 0,5 -5,0 z M 165,215 l 5,0 0,5 -5,0 z M 170,215 l 5,0 0,5 -5,0 z M 175,215 l 5,0 0,5 -5,0 z M 180,215 l 5,0 0,5 -5,0 z M 185,215 l 5,0 0,5 -5,0 z M 190,215 l 5,0 0,5 -5,0 z M 195,215 l 5,0 0,5 -5,0 z M 5,220 l 5,0 0,5 -5,0 z M 35,220 l 5,0 0,5 -5,0 z M 45,220 l 5,0 0,5 -5,0 z M 50,220 l 5,0 0,5 -5,0 z M 55,220 l 5,0 0,5 -5,0 z M 65,220 l 5,0 0,5 -5,0 z M 85,220 l 5,0 0,5 -5,0 z M 100,220 l 5,0 0,5 -5,0 z M 105,220 l 5,0 0,5 -5,0 z M 115,220 l 5,0 0,5 -5,0 z M 130,220 l 5,0 0,5 -5,0 z M 140,220 l 5,0 0,5 -5,0 z M 145,220 l 5,0 0,5 -5,0 z M 155,220 l 5,0 0,5 -5,0 z M 165,220 l 5,0 0,5 -5,0 z M 170,220 l 5,0 0,5 -5,0 z M 180,220 l 5,0 0,5 -5,0 z M 200,220 l 5,0 0,5 -5,0 z M 205,220 l 5,0 0,5 -5,0 z M 210,220 l 5,0 0,5 -5,0 z M 215,220 l 5,0 0,5 -5,0 z M 5,225 l 5,0 0,5 -5,0 z M 10,225 l 5,0 0,5 -5,0 z M 15,225 l 5,0 0,5 -5,0 z M 20,225 l 5,0 0,5 -5,0 z M 25,225 l 5,0 0,5 -5,0 z M 30,225 l 5,0 0,5 -5,0 z M 35,225 l 5,0 0,5 -5,0 z M 45,225 l 5,0 0,5 -5,0 z M 50,225 l 5,0 0,5 -5,0 z M 55,225 l 5,0 0,5 -5,0 z M 70,225 l 5,0 0,5 -5,0 z M 80,225 l 5,0 0,5 -5,0 z M 95,225 l 5,0 0,5 -5,0 z M 110,225 l 5,0 0,5 -5,0 z M 120,225 l 5,0 0,5 -5,0 z M 125,225 l 5,0 0,5 -5,0 z M 130,225 l 5,0 0,5 -5,0 z M 135,225 l 5,0 0,5 -5,0 z M 150,225 l 5,0 0,5 -5,0 z M 155,225 l 5,0 0,5 -5,0 z M 160,225 l 5,0 0,5 -5,0 z M 175,225 l 5,0 0,5 -5,0 z M 180,225 l 5,0 0,5 -5,0 z M 185,225 l 5,0 0,5 -5,0 z M 205,225 l 5,0 0,5 -5,0 z M 220,225 l 5,0 0,5 -5,0 z " />
	</g>
</svg>
