<?xml version="1.0" standalone="no"?>
<svg xmlns="http://www.w3.org/2000/svg" version="1.1" width="252" height="252">
	<!-- Created with https://api.qrserver.com (QR Code API, see goQR.me/api for information) -->
	<title>QR Code</title>
	<desc>BEGIN:VCARD
N:Yeo;Kheng Meng
EMAIL:khengmeng@algoaccess.com
EMAIL:yeokm1@gmail.com
ORG:Algo Access Pte Ltd
TEL;CELL:+65 97390391
TITLE:Software/Hardware Engineer
URL;WORK:http://algoaccess.com
URL:http://yeokhengmeng.com
URL:https://www.linkedin.com/in/yeokhengmeng
END:VCARD</desc>
	<rect style="fill:rgb(255, 255, 255);fill-opacity:1" x="0" y="0" width="252" height="252" />
	<g id="elements">
		<path style="fill:rgb(0, 0, 0)" d="M 4,4 l 4,0 0,4 -4,0 z M 8,4 l 4,0 0,4 -4,0 z M 12,4 l 4,0 0,4 -4,0 z M 16,4 l 4,0 0,4 -4,0 z M 20,4 l 4,0 0,4 -4,0 z M 24,4 l 4,0 0,4 -4,0 z M 28,4 l 4,0 0,4 -4,0 z M 44,4 l 4,0 0,4 -4,0 z M 48,4 l 4,0 0,4 -4,0 z M 52,4 l 4,0 0,4 -4,0 z M 68,4 l 4,0 0,4 -4,0 z M 72,4 l 4,0 0,4 -4,0 z M 80,4 l 4,0 0,4 -4,0 z M 100,4 l 4,0 0,4 -4,0 z M 104,4 l 4,0 0,4 -4,0 z M 132,4 l 4,0 0,4 -4,0 z M 136,4 l 4,0 0,4 -4,0 z M 140,4 l 4,0 0,4 -4,0 z M 144,4 l 4,0 0,4 -4,0 z M 160,4 l 4,0 0,4 -4,0 z M 172,4 l 4,0 0,4 -4,0 z M 176,4 l 4,0 0,4 -4,0 z M 180,4 l 4,0 0,4 -4,0 z M 188,4 l 4,0 0,4 -4,0 z M 200,4 l 4,0 0,4 -4,0 z M 208,4 l 4,0 0,4 -4,0 z M 212,4 l 4,0 0,4 -4,0 z M 220,4 l 4,0 0,4 -4,0 z M 224,4 l 4,0 0,4 -4,0 z M 228,4 l 4,0 0,4 -4,0 z M 232,4 l 4,0 0,4 -4,0 z M 236,4 l 4,0 0,4 -4,0 z M 240,4 l 4,0 0,4 -4,0 z M 244,4 l 4,0 0,4 -4,0 z M 4,8 l 4,0 0,4 -4,0 z M 28,8 l 4,0 0,4 -4,0 z M 36,8 l 4,0 0,4 -4,0 z M 40,8 l 4,0 0,4 -4,0 z M 44,8 l 4,0 0,4 -4,0 z M 52,8 l 4,0 0,4 -4,0 z M 56,8 l 4,0 0,4 -4,0 z M 64,8 l 4,0 0,4 -4,0 z M 68,8 l 4,0 0,4 -4,0 z M 72,8 l 4,0 0,4 -4,0 z M 76,8 l 4,0 0,4 -4,0 z M 80,8 l 4,0 0,4 -4,0 z M 84,8 l 4,0 0,4 -4,0 z M 92,8 l 4,0 0,4 -4,0 z M 96,8 l 4,0 0,4 -4,0 z M 100,8 l 4,0 0,4 -4,0 z M 104,8 l 4,0 0,4 -4,0 z M 112,8 l 4,0 0,4 -4,0 z M 124,8 l 4,0 0,4 -4,0 z M 128,8 l 4,0 0,4 -4,0 z M 136,8 l 4,0 0,4 -4,0 z M 140,8 l 4,0 0,4 -4,0 z M 148,8 l 4,0 0,4 -4,0 z M 152,8 l 4,0 0,4 -4,0 z M 160,8 l 4,0 0,4 -4,0 z M 168,8 l 4,0 0,4 -4,0 z M 176,8 l 4,0 0,4 -4,0 z M 184,8 l 4,0 0,4 -4,0 z M 188,8 l 4,0 0,4 -4,0 z M 192,8 l 4,0 0,4 -4,0 z M 196,8 l 4,0 0,4 -4,0 z M 208,8 l 4,0 0,4 -4,0 z M 212,8 l 4,0 0,4 -4,0 z M 220,8 l 4,0 0,4 -4,0 z M 244,8 l 4,0 0,4 -4,0 z M 4,12 l 4,0 0,4 -4,0 z M 12,12 l 4,0 0,4 -4,0 z M 16,12 l 4,0 0,4 -4,0 z M 20,12 l 4,0 0,4 -4,0 z M 28,12 l 4,0 0,4 -4,0 z M 40,12 l 4,0 0,4 -4,0 z M 60,12 l 4,0 0,4 -4,0 z M 68,12 l 4,0 0,4 -4,0 z M 72,12 l 4,0 0,4 -4,0 z M 80,12 l 4,0 0,4 -4,0 z M 88,12 l 4,0 0,4 -4,0 z M 100,12 l 4,0 0,4 -4,0 z M 108,12 l 4,0 0,4 -4,0 z M 128,12 l 4,0 0,4 -4,0 z M 132,12 l 4,0 0,4 -4,0 z M 136,12 l 4,0 0,4 -4,0 z M 148,12 l 4,0 0,4 -4,0 z M 160,12 l 4,0 0,4 -4,0 z M 172,12 l 4,0 0,4 -4,0 z M 200,12 l 4,0 0,4 -4,0 z M 204,12 l 4,0 0,4 -4,0 z M 208,12 l 4,0 0,4 -4,0 z M 212,12 l 4,0 0,4 -4,0 z M 220,12 l 4,0 0,4 -4,0 z M 228,12 l 4,0 0,4 -4,0 z M 232,12 l 4,0 0,4 -4,0 z M 236,12 l 4,0 0,4 -4,0 z M 244,12 l 4,0 0,4 -4,0 z M 4,16 l 4,0 0,4 -4,0 z M 12,16 l 4,0 0,4 -4,0 z M 16,16 l 4,0 0,4 -4,0 z M 20,16 l 4,0 0,4 -4,0 z M 28,16 l 4,0 0,4 -4,0 z M 36,16 l 4,0 0,4 -4,0 z M 40,16 l 4,0 0,4 -4,0 z M 48,16 l 4,0 0,4 -4,0 z M 56,16 l 4,0 0,4 -4,0 z M 60,16 l 4,0 0,4 -4,0 z M 64,16 l 4,0 0,4 -4,0 z M 68,16 l 4,0 0,4 -4,0 z M 76,16 l 4,0 0,4 -4,0 z M 80,16 l 4,0 0,4 -4,0 z M 88,16 l 4,0 0,4 -4,0 z M 92,16 l 4,0 0,4 -4,0 z M 96,16 l 4,0 0,4 -4,0 z M 100,16 l 4,0 0,4 -4,0 z M 104,16 l 4,0 0,4 -4,0 z M 108,16 l 4,0 0,4 -4,0 z M 116,16 l 4,0 0,4 -4,0 z M 128,16 l 4,0 0,4 -4,0 z M 152,16 l 4,0 0,4 -4,0 z M 160,16 l 4,0 0,4 -4,0 z M 168,16 l 4,0 0,4 -4,0 z M 172,16 l 4,0 0,4 -4,0 z M 176,16 l 4,0 0,4 -4,0 z M 188,16 l 4,0 0,4 -4,0 z M 192,16 l 4,0 0,4 -4,0 z M 200,16 l 4,0 0,4 -4,0 z M 204,16 l 4,0 0,4 -4,0 z M 212,16 l 4,0 0,4 -4,0 z M 220,16 l 4,0 0,4 -4,0 z M 228,16 l 4,0 0,4 -4,0 z M 232,16 l 4,0 0,4 -4,0 z M 236,16 l 4,0 0,4 -4,0 z M 244,16 l 4,0 0,4 -4,0 z M 4,20 l 4,0 0,4 -4,0 z M 12,20 l 4,0 0,4 -4,0 z M 16,20 l 4,0 0,4 -4,0 z M 20,20 l 4,0 0,4 -4,0 z M 28,20 l 4,0 0,4 -4,0 z M 40,20 l 4,0 0,4 -4,0 z M 48,20 l 4,0 0,4 -4,0 z M 56,20 l 4,0 0,4 -4,0 z M 68,20 l 4,0 0,4 -4,0 z M 72,20 l 4,0 0,4 -4,0 z M 84,20 l 4,0 0,4 -4,0 z M 88,20 l 4,0 0,4 -4,0 z M 92,20 l 4,0 0,4 -4,0 z M 96,20 l 4,0 0,4 -4,0 z M 100,20 l 4,0 0,4 -4,0 z M 108,20 l 4,0 0,4 -4,0 z M 116,20 l 4,0 0,4 -4,0 z M 120,20 l 4,0 0,4 -4,0 z M 124,20 l 4,0 0,4 -4,0 z M 128,20 l 4,0 0,4 -4,0 z M 132,20 l 4,0 0,4 -4,0 z M 136,20 l 4,0 0,4 -4,0 z M 148,20 l 4,0 0,4 -4,0 z M 160,20 l 4,0 0,4 -4,0 z M 172,20 l 4,0 0,4 -4,0 z M 176,20 l 4,0 0,4 -4,0 z M 180,20 l 4,0 0,4 -4,0 z M 184,20 l 4,0 0,4 -4,0 z M 200,20 l 4,0 0,4 -4,0 z M 204,20 l 4,0 0,4 -4,0 z M 208,20 l 4,0 0,4 -4,0 z M 220,20 l 4,0 0,4 -4,0 z M 228,20 l 4,0 0,4 -4,0 z M 232,20 l 4,0 0,4 -4,0 z M 236,20 l 4,0 0,4 -4,0 z M 244,20 l 4,0 0,4 -4,0 z M 4,24 l 4,0 0,4 -4,0 z M 28,24 l 4,0 0,4 -4,0 z M 36,24 l 4,0 0,4 -4,0 z M 44,24 l 4,0 0,4 -4,0 z M 48,24 l 4,0 0,4 -4,0 z M 52,24 l 4,0 0,4 -4,0 z M 56,24 l 4,0 0,4 -4,0 z M 64,24 l 4,0 0,4 -4,0 z M 68,24 l 4,0 0,4 -4,0 z M 76,24 l 4,0 0,4 -4,0 z M 80,24 l 4,0 0,4 -4,0 z M 84,24 l 4,0 0,4 -4,0 z M 96,24 l 4,0 0,4 -4,0 z M 100,24 l 4,0 0,4 -4,0 z M 104,24 l 4,0 0,4 -4,0 z M 108,24 l 4,0 0,4 -4,0 z M 112,24 l 4,0 0,4 -4,0 z M 116,24 l 4,0 0,4 -4,0 z M 132,24 l 4,0 0,4 -4,0 z M 148,24 l 4,0 0,4 -4,0 z M 156,24 l 4,0 0,4 -4,0 z M 160,24 l 4,0 0,4 -4,0 z M 164,24 l 4,0 0,4 -4,0 z M 176,24 l 4,0 0,4 -4,0 z M 188,24 l 4,0 0,4 -4,0 z M 192,24 l 4,0 0,4 -4,0 z M 196,24 l 4,0 0,4 -4,0 z M 200,24 l 4,0 0,4 -4,0 z M 204,24 l 4,0 0,4 -4,0 z M 220,24 l 4,0 0,4 -4,0 z M 244,24 l 4,0 0,4 -4,0 z M 4,28 l 4,0 0,4 -4,0 z M 8,28 l 4,0 0,4 -4,0 z M 12,28 l 4,0 0,4 -4,0 z M 16,28 l 4,0 0,4 -4,0 z M 20,28 l 4,0 0,4 -4,0 z M 24,28 l 4,0 0,4 -4,0 z M 28,28 l 4,0 0,4 -4,0 z M 36,28 l 4,0 0,4 -4,0 z M 44,28 l 4,0 0,4 -4,0 z M 52,28 l 4,0 0,4 -4,0 z M 60,28 l 4,0 0,4 -4,0 z M 68,28 l 4,0 0,4 -4,0 z M 76,28 l 4,0 0,4 -4,0 z M 84,28 l 4,0 0,4 -4,0 z M 92,28 l 4,0 0,4 -4,0 z M 100,28 l 4,0 0,4 -4,0 z M 108,28 l 4,0 0,4 -4,0 z M 116,28 l 4,0 0,4 -4,0 z M 124,28 l 4,0 0,4 -4,0 z M 132,28 l 4,0 0,4 -4,0 z M 140,28 l 4,0 0,4 -4,0 z M 148,28 l 4,0 0,4 -4,0 z M 156,28 l 4,0 0,4 -4,0 z M 164,28 l 4,0 0,4 -4,0 z M 172,28 l 4,0 0,4 -4,0 z M 180,28 l 4,0 0,4 -4,0 z M 188,28 l 4,0 0,4 -4,0 z M 196,28 l 4,0 0,4 -4,0 z M 204,28 l 4,0 0,4 -4,0 z M 212,28 l 4,0 0,4 -4,0 z M 220,28 l 4,0 0,4 -4,0 z M 224,28 l 4,0 0,4 -4,0 z M 228,28 l 4,0 0,4 -4,0 z M 232,28 l 4,0 0,4 -4,0 z M 236,28 l 4,0 0,4 -4,0 z M 240,28 l 4,0 0,4 -4,0 z M 244,28 l 4,0 0,4 -4,0 z M 40,32 l 4,0 0,4 -4,0 z M 44,32 l 4,0 0,4 -4,0 z M 60,32 l 4,0 0,4 -4,0 z M 64,32 l 4,0 0,4 -4,0 z M 72,32 l 4,0 0,4 -4,0 z M 76,32 l 4,0 0,4 -4,0 z M 80,32 l 4,0 0,4 -4,0 z M 92,32 l 4,0 0,4 -4,0 z M 96,32 l 4,0 0,4 -4,0 z M 100,32 l 4,0 0,4 -4,0 z M 108,32 l 4,0 0,4 -4,0 z M 116,32 l 4,0 0,4 -4,0 z M 132,32 l 4,0 0,4 -4,0 z M 152,32 l 4,0 0,4 -4,0 z M 172,32 l 4,0 0,4 -4,0 z M 180,32 l 4,0 0,4 -4,0 z M 192,32 l 4,0 0,4 -4,0 z M 196,32 l 4,0 0,4 -4,0 z M 200,32 l 4,0 0,4 -4,0 z M 208,32 l 4,0 0,4 -4,0 z M 4,36 l 4,0 0,4 -4,0 z M 8,36 l 4,0 0,4 -4,0 z M 12,36 l 4,0 0,4 -4,0 z M 16,36 l 4,0 0,4 -4,0 z M 20,36 l 4,0 0,4 -4,0 z M 28,36 l 4,0 0,4 -4,0 z M 32,36 l 4,0 0,4 -4,0 z M 36,36 l 4,0 0,4 -4,0 z M 48,36 l 4,0 0,4 -4,0 z M 60,36 l 4,0 0,4 -4,0 z M 68,36 l 4,0 0,4 -4,0 z M 76,36 l 4,0 0,4 -4,0 z M 88,36 l 4,0 0,4 -4,0 z M 96,36 l 4,0 0,4 -4,0 z M 100,36 l 4,0 0,4 -4,0 z M 104,36 l 4,0 0,4 -4,0 z M 108,36 l 4,0 0,4 -4,0 z M 116,36 l 4,0 0,4 -4,0 z M 120,36 l 4,0 0,4 -4,0 z M 124,36 l 4,0 0,4 -4,0 z M 128,36 l 4,0 0,4 -4,0 z M 132,36 l 4,0 0,4 -4,0 z M 144,36 l 4,0 0,4 -4,0 z M 148,36 l 4,0 0,4 -4,0 z M 152,36 l 4,0 0,4 -4,0 z M 180,36 l 4,0 0,4 -4,0 z M 184,36 l 4,0 0,4 -4,0 z M 188,36 l 4,0 0,4 -4,0 z M 196,36 l 4,0 0,4 -4,0 z M 200,36 l 4,0 0,4 -4,0 z M 208,36 l 4,0 0,4 -4,0 z M 216,36 l 4,0 0,4 -4,0 z M 224,36 l 4,0 0,4 -4,0 z M 232,36 l 4,0 0,4 -4,0 z M 240,36 l 4,0 0,4 -4,0 z M 24,40 l 4,0 0,4 -4,0 z M 44,40 l 4,0 0,4 -4,0 z M 48,40 l 4,0 0,4 -4,0 z M 52,40 l 4,0 0,4 -4,0 z M 56,40 l 4,0 0,4 -4,0 z M 72,40 l 4,0 0,4 -4,0 z M 76,40 l 4,0 0,4 -4,0 z M 80,40 l 4,0 0,4 -4,0 z M 84,40 l 4,0 0,4 -4,0 z M 88,40 l 4,0 0,4 -4,0 z M 92,40 l 4,0 0,4 -4,0 z M 100,40 l 4,0 0,4 -4,0 z M 112,40 l 4,0 0,4 -4,0 z M 120,40 l 4,0 0,4 -4,0 z M 124,40 l 4,0 0,4 -4,0 z M 128,40 l 4,0 0,4 -4,0 z M 144,40 l 4,0 0,4 -4,0 z M 148,40 l 4,0 0,4 -4,0 z M 172,40 l 4,0 0,4 -4,0 z M 188,40 l 4,0 0,4 -4,0 z M 204,40 l 4,0 0,4 -4,0 z M 208,40 l 4,0 0,4 -4,0 z M 212,40 l 4,0 0,4 -4,0 z M 216,40 l 4,0 0,4 -4,0 z M 220,40 l 4,0 0,4 -4,0 z M 224,40 l 4,0 0,4 -4,0 z M 232,40 l 4,0 0,4 -4,0 z M 240,40 l 4,0 0,4 -4,0 z M 8,44 l 4,0 0,4 -4,0 z M 12,44 l 4,0 0,4 -4,0 z M 28,44 l 4,0 0,4 -4,0 z M 32,44 l 4,0 0,4 -4,0 z M 36,44 l 4,0 0,4 -4,0 z M 44,44 l 4,0 0,4 -4,0 z M 56,44 l 4,0 0,4 -4,0 z M 64,44 l 4,0 0,4 -4,0 z M 68,44 l 4,0 0,4 -4,0 z M 72,44 l 4,0 0,4 -4,0 z M 76,44 l 4,0 0,4 -4,0 z M 84,44 l 4,0 0,4 -4,0 z M 136,44 l 4,0 0,4 -4,0 z M 140,44 l 4,0 0,4 -4,0 z M 144,44 l 4,0 0,4 -4,0 z M 156,44 l 4,0 0,4 -4,0 z M 172,44 l 4,0 0,4 -4,0 z M 184,44 l 4,0 0,4 -4,0 z M 192,44 l 4,0 0,4 -4,0 z M 196,44 l 4,0 0,4 -4,0 z M 200,44 l 4,0 0,4 -4,0 z M 208,44 l 4,0 0,4 -4,0 z M 212,44 l 4,0 0,4 -4,0 z M 220,44 l 4,0 0,4 -4,0 z M 224,44 l 4,0 0,4 -4,0 z M 228,44 l 4,0 0,4 -4,0 z M 232,44 l 4,0 0,4 -4,0 z M 236,44 l 4,0 0,4 -4,0 z M 240,44 l 4,0 0,4 -4,0 z M 244,44 l 4,0 0,4 -4,0 z M 8,48 l 4,0 0,4 -4,0 z M 16,48 l 4,0 0,4 -4,0 z M 24,48 l 4,0 0,4 -4,0 z M 32,48 l 4,0 0,4 -4,0 z M 40,48 l 4,0 0,4 -4,0 z M 48,48 l 4,0 0,4 -4,0 z M 52,48 l 4,0 0,4 -4,0 z M 60,48 l 4,0 0,4 -4,0 z M 80,48 l 4,0 0,4 -4,0 z M 84,48 l 4,0 0,4 -4,0 z M 96,48 l 4,0 0,4 -4,0 z M 100,48 l 4,0 0,4 -4,0 z M 104,48 l 4,0 0,4 -4,0 z M 108,48 l 4,0 0,4 -4,0 z M 112,48 l 4,0 0,4 -4,0 z M 128,48 l 4,0 0,4 -4,0 z M 136,48 l 4,0 0,4 -4,0 z M 148,48 l 4,0 0,4 -4,0 z M 152,48 l 4,0 0,4 -4,0 z M 156,48 l 4,0 0,4 -4,0 z M 160,48 l 4,0 0,4 -4,0 z M 168,48 l 4,0 0,4 -4,0 z M 172,48 l 4,0 0,4 -4,0 z M 192,48 l 4,0 0,4 -4,0 z M 200,48 l 4,0 0,4 -4,0 z M 216,48 l 4,0 0,4 -4,0 z M 220,48 l 4,0 0,4 -4,0 z M 224,48 l 4,0 0,4 -4,0 z M 228,48 l 4,0 0,4 -4,0 z M 236,48 l 4,0 0,4 -4,0 z M 240,48 l 4,0 0,4 -4,0 z M 244,48 l 4,0 0,4 -4,0 z M 8,52 l 4,0 0,4 -4,0 z M 12,52 l 4,0 0,4 -4,0 z M 16,52 l 4,0 0,4 -4,0 z M 24,52 l 4,0 0,4 -4,0 z M 28,52 l 4,0 0,4 -4,0 z M 36,52 l 4,0 0,4 -4,0 z M 40,52 l 4,0 0,4 -4,0 z M 56,52 l 4,0 0,4 -4,0 z M 60,52 l 4,0 0,4 -4,0 z M 68,52 l 4,0 0,4 -4,0 z M 72,52 l 4,0 0,4 -4,0 z M 76,52 l 4,0 0,4 -4,0 z M 88,52 l 4,0 0,4 -4,0 z M 100,52 l 4,0 0,4 -4,0 z M 124,52 l 4,0 0,4 -4,0 z M 136,52 l 4,0 0,4 -4,0 z M 144,52 l 4,0 0,4 -4,0 z M 156,52 l 4,0 0,4 -4,0 z M 160,52 l 4,0 0,4 -4,0 z M 184,52 l 4,0 0,4 -4,0 z M 188,52 l 4,0 0,4 -4,0 z M 196,52 l 4,0 0,4 -4,0 z M 204,52 l 4,0 0,4 -4,0 z M 212,52 l 4,0 0,4 -4,0 z M 216,52 l 4,0 0,4 -4,0 z M 220,52 l 4,0 0,4 -4,0 z M 232,52 l 4,0 0,4 -4,0 z M 236,52 l 4,0 0,4 -4,0 z M 240,52 l 4,0 0,4 -4,0 z M 244,52 l 4,0 0,4 -4,0 z M 32,56 l 4,0 0,4 -4,0 z M 44,56 l 4,0 0,4 -4,0 z M 48,56 l 4,0 0,4 -4,0 z M 72,56 l 4,0 0,4 -4,0 z M 76,56 l 4,0 0,4 -4,0 z M 88,56 l 4,0 0,4 -4,0 z M 92,56 l 4,0 0,4 -4,0 z M 100,56 l 4,0 0,4 -4,0 z M 108,56 l 4,0 0,4 -4,0 z M 112,56 l 4,0 0,4 -4,0 z M 120,56 l 4,0 0,4 -4,0 z M 128,56 l 4,0 0,4 -4,0 z M 132,56 l 4,0 0,4 -4,0 z M 152,56 l 4,0 0,4 -4,0 z M 156,56 l 4,0 0,4 -4,0 z M 160,56 l 4,0 0,4 -4,0 z M 164,56 l 4,0 0,4 -4,0 z M 168,56 l 4,0 0,4 -4,0 z M 172,56 l 4,0 0,4 -4,0 z M 180,56 l 4,0 0,4 -4,0 z M 192,56 l 4,0 0,4 -4,0 z M 200,56 l 4,0 0,4 -4,0 z M 204,56 l 4,0 0,4 -4,0 z M 220,56 l 4,0 0,4 -4,0 z M 228,56 l 4,0 0,4 -4,0 z M 240,56 l 4,0 0,4 -4,0 z M 16,60 l 4,0 0,4 -4,0 z M 20,60 l 4,0 0,4 -4,0 z M 24,60 l 4,0 0,4 -4,0 z M 28,60 l 4,0 0,4 -4,0 z M 44,60 l 4,0 0,4 -4,0 z M 48,60 l 4,0 0,4 -4,0 z M 64,60 l 4,0 0,4 -4,0 z M 68,60 l 4,0 0,4 -4,0 z M 72,60 l 4,0 0,4 -4,0 z M 76,60 l 4,0 0,4 -4,0 z M 80,60 l 4,0 0,4 -4,0 z M 84,60 l 4,0 0,4 -4,0 z M 92,60 l 4,0 0,4 -4,0 z M 100,60 l 4,0 0,4 -4,0 z M 132,60 l 4,0 0,4 -4,0 z M 136,60 l 4,0 0,4 -4,0 z M 144,60 l 4,0 0,4 -4,0 z M 160,60 l 4,0 0,4 -4,0 z M 172,60 l 4,0 0,4 -4,0 z M 188,60 l 4,0 0,4 -4,0 z M 192,60 l 4,0 0,4 -4,0 z M 196,60 l 4,0 0,4 -4,0 z M 200,60 l 4,0 0,4 -4,0 z M 204,60 l 4,0 0,4 -4,0 z M 208,60 l 4,0 0,4 -4,0 z M 212,60 l 4,0 0,4 -4,0 z M 224,60 l 4,0 0,4 -4,0 z M 236,60 l 4,0 0,4 -4,0 z M 4,64 l 4,0 0,4 -4,0 z M 8,64 l 4,0 0,4 -4,0 z M 12,64 l 4,0 0,4 -4,0 z M 32,64 l 4,0 0,4 -4,0 z M 40,64 l 4,0 0,4 -4,0 z M 44,64 l 4,0 0,4 -4,0 z M 48,64 l 4,0 0,4 -4,0 z M 56,64 l 4,0 0,4 -4,0 z M 80,64 l 4,0 0,4 -4,0 z M 88,64 l 4,0 0,4 -4,0 z M 92,64 l 4,0 0,4 -4,0 z M 100,64 l 4,0 0,4 -4,0 z M 104,64 l 4,0 0,4 -4,0 z M 108,64 l 4,0 0,4 -4,0 z M 120,64 l 4,0 0,4 -4,0 z M 132,64 l 4,0 0,4 -4,0 z M 136,64 l 4,0 0,4 -4,0 z M 148,64 l 4,0 0,4 -4,0 z M 156,64 l 4,0 0,4 -4,0 z M 160,64 l 4,0 0,4 -4,0 z M 168,64 l 4,0 0,4 -4,0 z M 172,64 l 4,0 0,4 -4,0 z M 176,64 l 4,0 0,4 -4,0 z M 192,64 l 4,0 0,4 -4,0 z M 196,64 l 4,0 0,4 -4,0 z M 200,64 l 4,0 0,4 -4,0 z M 216,64 l 4,0 0,4 -4,0 z M 220,64 l 4,0 0,4 -4,0 z M 224,64 l 4,0 0,4 -4,0 z M 228,64 l 4,0 0,4 -4,0 z M 232,64 l 4,0 0,4 -4,0 z M 4,68 l 4,0 0,4 -4,0 z M 8,68 l 4,0 0,4 -4,0 z M 12,68 l 4,0 0,4 -4,0 z M 16,68 l 4,0 0,4 -4,0 z M 24,68 l 4,0 0,4 -4,0 z M 28,68 l 4,0 0,4 -4,0 z M 32,68 l 4,0 0,4 -4,0 z M 36,68 l 4,0 0,4 -4,0 z M 76,68 l 4,0 0,4 -4,0 z M 92,68 l 4,0 0,4 -4,0 z M 100,68 l 4,0 0,4 -4,0 z M 108,68 l 4,0 0,4 -4,0 z M 112,68 l 4,0 0,4 -4,0 z M 116,68 l 4,0 0,4 -4,0 z M 124,68 l 4,0 0,4 -4,0 z M 128,68 l 4,0 0,4 -4,0 z M 136,68 l 4,0 0,4 -4,0 z M 140,68 l 4,0 0,4 -4,0 z M 148,68 l 4,0 0,4 -4,0 z M 152,68 l 4,0 0,4 -4,0 z M 160,68 l 4,0 0,4 -4,0 z M 168,68 l 4,0 0,4 -4,0 z M 176,68 l 4,0 0,4 -4,0 z M 184,68 l 4,0 0,4 -4,0 z M 188,68 l 4,0 0,4 -4,0 z M 192,68 l 4,0 0,4 -4,0 z M 196,68 l 4,0 0,4 -4,0 z M 200,68 l 4,0 0,4 -4,0 z M 204,68 l 4,0 0,4 -4,0 z M 208,68 l 4,0 0,4 -4,0 z M 212,68 l 4,0 0,4 -4,0 z M 216,68 l 4,0 0,4 -4,0 z M 220,68 l 4,0 0,4 -4,0 z M 228,68 l 4,0 0,4 -4,0 z M 232,68 l 4,0 0,4 -4,0 z M 236,68 l 4,0 0,4 -4,0 z M 240,68 l 4,0 0,4 -4,0 z M 244,68 l 4,0 0,4 -4,0 z M 4,72 l 4,0 0,4 -4,0 z M 8,72 l 4,0 0,4 -4,0 z M 16,72 l 4,0 0,4 -4,0 z M 20,72 l 4,0 0,4 -4,0 z M 24,72 l 4,0 0,4 -4,0 z M 48,72 l 4,0 0,4 -4,0 z M 56,72 l 4,0 0,4 -4,0 z M 64,72 l 4,0 0,4 -4,0 z M 72,72 l 4,0 0,4 -4,0 z M 76,72 l 4,0 0,4 -4,0 z M 80,72 l 4,0 0,4 -4,0 z M 88,72 l 4,0 0,4 -4,0 z M 96,72 l 4,0 0,4 -4,0 z M 108,72 l 4,0 0,4 -4,0 z M 120,72 l 4,0 0,4 -4,0 z M 140,72 l 4,0 0,4 -4,0 z M 144,72 l 4,0 0,4 -4,0 z M 152,72 l 4,0 0,4 -4,0 z M 160,72 l 4,0 0,4 -4,0 z M 172,72 l 4,0 0,4 -4,0 z M 180,72 l 4,0 0,4 -4,0 z M 200,72 l 4,0 0,4 -4,0 z M 208,72 l 4,0 0,4 -4,0 z M 212,72 l 4,0 0,4 -4,0 z M 216,72 l 4,0 0,4 -4,0 z M 220,72 l 4,0 0,4 -4,0 z M 224,72 l 4,0 0,4 -4,0 z M 228,72 l 4,0 0,4 -4,0 z M 240,72 l 4,0 0,4 -4,0 z M 244,72 l 4,0 0,4 -4,0 z M 8,76 l 4,0 0,4 -4,0 z M 12,76 l 4,0 0,4 -4,0 z M 20,76 l 4,0 0,4 -4,0 z M 28,76 l 4,0 0,4 -4,0 z M 32,76 l 4,0 0,4 -4,0 z M 36,76 l 4,0 0,4 -4,0 z M 48,76 l 4,0 0,4 -4,0 z M 52,76 l 4,0 0,4 -4,0 z M 56,76 l 4,0 0,4 -4,0 z M 60,76 l 4,0 0,4 -4,0 z M 76,76 l 4,0 0,4 -4,0 z M 84,76 l 4,0 0,4 -4,0 z M 88,76 l 4,0 0,4 -4,0 z M 104,76 l 4,0 0,4 -4,0 z M 112,76 l 4,0 0,4 -4,0 z M 120,76 l 4,0 0,4 -4,0 z M 140,76 l 4,0 0,4 -4,0 z M 144,76 l 4,0 0,4 -4,0 z M 148,76 l 4,0 0,4 -4,0 z M 156,76 l 4,0 0,4 -4,0 z M 168,76 l 4,0 0,4 -4,0 z M 176,76 l 4,0 0,4 -4,0 z M 188,76 l 4,0 0,4 -4,0 z M 192,76 l 4,0 0,4 -4,0 z M 196,76 l 4,0 0,4 -4,0 z M 212,76 l 4,0 0,4 -4,0 z M 216,76 l 4,0 0,4 -4,0 z M 232,76 l 4,0 0,4 -4,0 z M 236,76 l 4,0 0,4 -4,0 z M 240,76 l 4,0 0,4 -4,0 z M 244,76 l 4,0 0,4 -4,0 z M 24,80 l 4,0 0,4 -4,0 z M 36,80 l 4,0 0,4 -4,0 z M 44,80 l 4,0 0,4 -4,0 z M 64,80 l 4,0 0,4 -4,0 z M 72,80 l 4,0 0,4 -4,0 z M 80,80 l 4,0 0,4 -4,0 z M 92,80 l 4,0 0,4 -4,0 z M 96,80 l 4,0 0,4 -4,0 z M 108,80 l 4,0 0,4 -4,0 z M 116,80 l 4,0 0,4 -4,0 z M 120,80 l 4,0 0,4 -4,0 z M 124,80 l 4,0 0,4 -4,0 z M 140,80 l 4,0 0,4 -4,0 z M 156,80 l 4,0 0,4 -4,0 z M 160,80 l 4,0 0,4 -4,0 z M 164,80 l 4,0 0,4 -4,0 z M 184,80 l 4,0 0,4 -4,0 z M 192,80 l 4,0 0,4 -4,0 z M 196,80 l 4,0 0,4 -4,0 z M 200,80 l 4,0 0,4 -4,0 z M 208,80 l 4,0 0,4 -4,0 z M 216,80 l 4,0 0,4 -4,0 z M 220,80 l 4,0 0,4 -4,0 z M 224,80 l 4,0 0,4 -4,0 z M 228,80 l 4,0 0,4 -4,0 z M 24,84 l 4,0 0,4 -4,0 z M 28,84 l 4,0 0,4 -4,0 z M 40,84 l 4,0 0,4 -4,0 z M 44,84 l 4,0 0,4 -4,0 z M 52,84 l 4,0 0,4 -4,0 z M 68,84 l 4,0 0,4 -4,0 z M 80,84 l 4,0 0,4 -4,0 z M 88,84 l 4,0 0,4 -4,0 z M 104,84 l 4,0 0,4 -4,0 z M 112,84 l 4,0 0,4 -4,0 z M 136,84 l 4,0 0,4 -4,0 z M 140,84 l 4,0 0,4 -4,0 z M 148,84 l 4,0 0,4 -4,0 z M 176,84 l 4,0 0,4 -4,0 z M 180,84 l 4,0 0,4 -4,0 z M 184,84 l 4,0 0,4 -4,0 z M 188,84 l 4,0 0,4 -4,0 z M 192,84 l 4,0 0,4 -4,0 z M 196,84 l 4,0 0,4 -4,0 z M 200,84 l 4,0 0,4 -4,0 z M 204,84 l 4,0 0,4 -4,0 z M 208,84 l 4,0 0,4 -4,0 z M 212,84 l 4,0 0,4 -4,0 z M 224,84 l 4,0 0,4 -4,0 z M 228,84 l 4,0 0,4 -4,0 z M 240,84 l 4,0 0,4 -4,0 z M 244,84 l 4,0 0,4 -4,0 z M 4,88 l 4,0 0,4 -4,0 z M 8,88 l 4,0 0,4 -4,0 z M 12,88 l 4,0 0,4 -4,0 z M 32,88 l 4,0 0,4 -4,0 z M 36,88 l 4,0 0,4 -4,0 z M 40,88 l 4,0 0,4 -4,0 z M 48,88 l 4,0 0,4 -4,0 z M 52,88 l 4,0 0,4 -4,0 z M 60,88 l 4,0 0,4 -4,0 z M 80,88 l 4,0 0,4 -4,0 z M 84,88 l 4,0 0,4 -4,0 z M 88,88 l 4,0 0,4 -4,0 z M 104,88 l 4,0 0,4 -4,0 z M 108,88 l 4,0 0,4 -4,0 z M 124,88 l 4,0 0,4 -4,0 z M 132,88 l 4,0 0,4 -4,0 z M 140,88 l 4,0 0,4 -4,0 z M 144,88 l 4,0 0,4 -4,0 z M 156,88 l 4,0 0,4 -4,0 z M 160,88 l 4,0 0,4 -4,0 z M 164,88 l 4,0 0,4 -4,0 z M 172,88 l 4,0 0,4 -4,0 z M 184,88 l 4,0 0,4 -4,0 z M 204,88 l 4,0 0,4 -4,0 z M 212,88 l 4,0 0,4 -4,0 z M 216,88 l 4,0 0,4 -4,0 z M 232,88 l 4,0 0,4 -4,0 z M 244,88 l 4,0 0,4 -4,0 z M 12,92 l 4,0 0,4 -4,0 z M 20,92 l 4,0 0,4 -4,0 z M 28,92 l 4,0 0,4 -4,0 z M 32,92 l 4,0 0,4 -4,0 z M 40,92 l 4,0 0,4 -4,0 z M 52,92 l 4,0 0,4 -4,0 z M 60,92 l 4,0 0,4 -4,0 z M 68,92 l 4,0 0,4 -4,0 z M 72,92 l 4,0 0,4 -4,0 z M 84,92 l 4,0 0,4 -4,0 z M 100,92 l 4,0 0,4 -4,0 z M 116,92 l 4,0 0,4 -4,0 z M 124,92 l 4,0 0,4 -4,0 z M 128,92 l 4,0 0,4 -4,0 z M 136,92 l 4,0 0,4 -4,0 z M 144,92 l 4,0 0,4 -4,0 z M 148,92 l 4,0 0,4 -4,0 z M 156,92 l 4,0 0,4 -4,0 z M 160,92 l 4,0 0,4 -4,0 z M 164,92 l 4,0 0,4 -4,0 z M 168,92 l 4,0 0,4 -4,0 z M 176,92 l 4,0 0,4 -4,0 z M 184,92 l 4,0 0,4 -4,0 z M 192,92 l 4,0 0,4 -4,0 z M 196,92 l 4,0 0,4 -4,0 z M 200,92 l 4,0 0,4 -4,0 z M 208,92 l 4,0 0,4 -4,0 z M 212,92 l 4,0 0,4 -4,0 z M 216,92 l 4,0 0,4 -4,0 z M 224,92 l 4,0 0,4 -4,0 z M 240,92 l 4,0 0,4 -4,0 z M 4,96 l 4,0 0,4 -4,0 z M 16,96 l 4,0 0,4 -4,0 z M 20,96 l 4,0 0,4 -4,0 z M 24,96 l 4,0 0,4 -4,0 z M 36,96 l 4,0 0,4 -4,0 z M 40,96 l 4,0 0,4 -4,0 z M 44,96 l 4,0 0,4 -4,0 z M 56,96 l 4,0 0,4 -4,0 z M 60,96 l 4,0 0,4 -4,0 z M 88,96 l 4,0 0,4 -4,0 z M 92,96 l 4,0 0,4 -4,0 z M 100,96 l 4,0 0,4 -4,0 z M 104,96 l 4,0 0,4 -4,0 z M 140,96 l 4,0 0,4 -4,0 z M 152,96 l 4,0 0,4 -4,0 z M 160,96 l 4,0 0,4 -4,0 z M 164,96 l 4,0 0,4 -4,0 z M 172,96 l 4,0 0,4 -4,0 z M 176,96 l 4,0 0,4 -4,0 z M 180,96 l 4,0 0,4 -4,0 z M 192,96 l 4,0 0,4 -4,0 z M 200,96 l 4,0 0,4 -4,0 z M 220,96 l 4,0 0,4 -4,0 z M 12,100 l 4,0 0,4 -4,0 z M 20,100 l 4,0 0,4 -4,0 z M 28,100 l 4,0 0,4 -4,0 z M 32,100 l 4,0 0,4 -4,0 z M 36,100 l 4,0 0,4 -4,0 z M 40,100 l 4,0 0,4 -4,0 z M 48,100 l 4,0 0,4 -4,0 z M 64,100 l 4,0 0,4 -4,0 z M 68,100 l 4,0 0,4 -4,0 z M 72,100 l 4,0 0,4 -4,0 z M 80,100 l 4,0 0,4 -4,0 z M 96,100 l 4,0 0,4 -4,0 z M 128,100 l 4,0 0,4 -4,0 z M 132,100 l 4,0 0,4 -4,0 z M 136,100 l 4,0 0,4 -4,0 z M 140,100 l 4,0 0,4 -4,0 z M 144,100 l 4,0 0,4 -4,0 z M 148,100 l 4,0 0,4 -4,0 z M 160,100 l 4,0 0,4 -4,0 z M 164,100 l 4,0 0,4 -4,0 z M 172,100 l 4,0 0,4 -4,0 z M 176,100 l 4,0 0,4 -4,0 z M 184,100 l 4,0 0,4 -4,0 z M 188,100 l 4,0 0,4 -4,0 z M 192,100 l 4,0 0,4 -4,0 z M 204,100 l 4,0 0,4 -4,0 z M 208,100 l 4,0 0,4 -4,0 z M 212,100 l 4,0 0,4 -4,0 z M 220,100 l 4,0 0,4 -4,0 z M 224,100 l 4,0 0,4 -4,0 z M 232,100 l 4,0 0,4 -4,0 z M 240,100 l 4,0 0,4 -4,0 z M 244,100 l 4,0 0,4 -4,0 z M 4,104 l 4,0 0,4 -4,0 z M 16,104 l 4,0 0,4 -4,0 z M 20,104 l 4,0 0,4 -4,0 z M 24,104 l 4,0 0,4 -4,0 z M 32,104 l 4,0 0,4 -4,0 z M 36,104 l 4,0 0,4 -4,0 z M 40,104 l 4,0 0,4 -4,0 z M 44,104 l 4,0 0,4 -4,0 z M 52,104 l 4,0 0,4 -4,0 z M 68,104 l 4,0 0,4 -4,0 z M 76,104 l 4,0 0,4 -4,0 z M 96,104 l 4,0 0,4 -4,0 z M 100,104 l 4,0 0,4 -4,0 z M 104,104 l 4,0 0,4 -4,0 z M 120,104 l 4,0 0,4 -4,0 z M 124,104 l 4,0 0,4 -4,0 z M 144,104 l 4,0 0,4 -4,0 z M 152,104 l 4,0 0,4 -4,0 z M 156,104 l 4,0 0,4 -4,0 z M 160,104 l 4,0 0,4 -4,0 z M 168,104 l 4,0 0,4 -4,0 z M 180,104 l 4,0 0,4 -4,0 z M 200,104 l 4,0 0,4 -4,0 z M 208,104 l 4,0 0,4 -4,0 z M 212,104 l 4,0 0,4 -4,0 z M 220,104 l 4,0 0,4 -4,0 z M 224,104 l 4,0 0,4 -4,0 z M 228,104 l 4,0 0,4 -4,0 z M 240,104 l 4,0 0,4 -4,0 z M 4,108 l 4,0 0,4 -4,0 z M 8,108 l 4,0 0,4 -4,0 z M 12,108 l 4,0 0,4 -4,0 z M 16,108 l 4,0 0,4 -4,0 z M 28,108 l 4,0 0,4 -4,0 z M 32,108 l 4,0 0,4 -4,0 z M 44,108 l 4,0 0,4 -4,0 z M 56,108 l 4,0 0,4 -4,0 z M 60,108 l 4,0 0,4 -4,0 z M 64,108 l 4,0 0,4 -4,0 z M 68,108 l 4,0 0,4 -4,0 z M 72,108 l 4,0 0,4 -4,0 z M 76,108 l 4,0 0,4 -4,0 z M 80,108 l 4,0 0,4 -4,0 z M 96,108 l 4,0 0,4 -4,0 z M 104,108 l 4,0 0,4 -4,0 z M 108,108 l 4,0 0,4 -4,0 z M 112,108 l 4,0 0,4 -4,0 z M 128,108 l 4,0 0,4 -4,0 z M 132,108 l 4,0 0,4 -4,0 z M 136,108 l 4,0 0,4 -4,0 z M 140,108 l 4,0 0,4 -4,0 z M 144,108 l 4,0 0,4 -4,0 z M 148,108 l 4,0 0,4 -4,0 z M 160,108 l 4,0 0,4 -4,0 z M 172,108 l 4,0 0,4 -4,0 z M 176,108 l 4,0 0,4 -4,0 z M 188,108 l 4,0 0,4 -4,0 z M 196,108 l 4,0 0,4 -4,0 z M 200,108 l 4,0 0,4 -4,0 z M 212,108 l 4,0 0,4 -4,0 z M 220,108 l 4,0 0,4 -4,0 z M 224,108 l 4,0 0,4 -4,0 z M 232,108 l 4,0 0,4 -4,0 z M 236,108 l 4,0 0,4 -4,0 z M 240,108 l 4,0 0,4 -4,0 z M 4,112 l 4,0 0,4 -4,0 z M 8,112 l 4,0 0,4 -4,0 z M 16,112 l 4,0 0,4 -4,0 z M 20,112 l 4,0 0,4 -4,0 z M 32,112 l 4,0 0,4 -4,0 z M 44,112 l 4,0 0,4 -4,0 z M 60,112 l 4,0 0,4 -4,0 z M 88,112 l 4,0 0,4 -4,0 z M 96,112 l 4,0 0,4 -4,0 z M 100,112 l 4,0 0,4 -4,0 z M 108,112 l 4,0 0,4 -4,0 z M 116,112 l 4,0 0,4 -4,0 z M 120,112 l 4,0 0,4 -4,0 z M 124,112 l 4,0 0,4 -4,0 z M 132,112 l 4,0 0,4 -4,0 z M 144,112 l 4,0 0,4 -4,0 z M 148,112 l 4,0 0,4 -4,0 z M 164,112 l 4,0 0,4 -4,0 z M 172,112 l 4,0 0,4 -4,0 z M 180,112 l 4,0 0,4 -4,0 z M 192,112 l 4,0 0,4 -4,0 z M 196,112 l 4,0 0,4 -4,0 z M 208,112 l 4,0 0,4 -4,0 z M 216,112 l 4,0 0,4 -4,0 z M 220,112 l 4,0 0,4 -4,0 z M 228,112 l 4,0 0,4 -4,0 z M 232,112 l 4,0 0,4 -4,0 z M 240,112 l 4,0 0,4 -4,0 z M 4,116 l 4,0 0,4 -4,0 z M 8,116 l 4,0 0,4 -4,0 z M 12,116 l 4,0 0,4 -4,0 z M 20,116 l 4,0 0,4 -4,0 z M 24,116 l 4,0 0,4 -4,0 z M 28,116 l 4,0 0,4 -4,0 z M 32,116 l 4,0 0,4 -4,0 z M 36,116 l 4,0 0,4 -4,0 z M 40,116 l 4,0 0,4 -4,0 z M 44,116 l 4,0 0,4 -4,0 z M 52,116 l 4,0 0,4 -4,0 z M 56,116 l 4,0 0,4 -4,0 z M 64,116 l 4,0 0,4 -4,0 z M 72,116 l 4,0 0,4 -4,0 z M 92,116 l 4,0 0,4 -4,0 z M 104,116 l 4,0 0,4 -4,0 z M 112,116 l 4,0 0,4 -4,0 z M 116,116 l 4,0 0,4 -4,0 z M 120,116 l 4,0 0,4 -4,0 z M 124,116 l 4,0 0,4 -4,0 z M 128,116 l 4,0 0,4 -4,0 z M 132,116 l 4,0 0,4 -4,0 z M 140,116 l 4,0 0,4 -4,0 z M 148,116 l 4,0 0,4 -4,0 z M 152,116 l 4,0 0,4 -4,0 z M 160,116 l 4,0 0,4 -4,0 z M 164,116 l 4,0 0,4 -4,0 z M 172,116 l 4,0 0,4 -4,0 z M 180,116 l 4,0 0,4 -4,0 z M 184,116 l 4,0 0,4 -4,0 z M 188,116 l 4,0 0,4 -4,0 z M 192,116 l 4,0 0,4 -4,0 z M 196,116 l 4,0 0,4 -4,0 z M 204,116 l 4,0 0,4 -4,0 z M 208,116 l 4,0 0,4 -4,0 z M 212,116 l 4,0 0,4 -4,0 z M 216,116 l 4,0 0,4 -4,0 z M 220,116 l 4,0 0,4 -4,0 z M 224,116 l 4,0 0,4 -4,0 z M 228,116 l 4,0 0,4 -4,0 z M 236,116 l 4,0 0,4 -4,0 z M 240,116 l 4,0 0,4 -4,0 z M 244,116 l 4,0 0,4 -4,0 z M 4,120 l 4,0 0,4 -4,0 z M 16,120 l 4,0 0,4 -4,0 z M 20,120 l 4,0 0,4 -4,0 z M 36,120 l 4,0 0,4 -4,0 z M 48,120 l 4,0 0,4 -4,0 z M 64,120 l 4,0 0,4 -4,0 z M 72,120 l 4,0 0,4 -4,0 z M 80,120 l 4,0 0,4 -4,0 z M 88,120 l 4,0 0,4 -4,0 z M 100,120 l 4,0 0,4 -4,0 z M 108,120 l 4,0 0,4 -4,0 z M 116,120 l 4,0 0,4 -4,0 z M 132,120 l 4,0 0,4 -4,0 z M 136,120 l 4,0 0,4 -4,0 z M 140,120 l 4,0 0,4 -4,0 z M 144,120 l 4,0 0,4 -4,0 z M 148,120 l 4,0 0,4 -4,0 z M 164,120 l 4,0 0,4 -4,0 z M 188,120 l 4,0 0,4 -4,0 z M 208,120 l 4,0 0,4 -4,0 z M 212,120 l 4,0 0,4 -4,0 z M 228,120 l 4,0 0,4 -4,0 z M 232,120 l 4,0 0,4 -4,0 z M 16,124 l 4,0 0,4 -4,0 z M 20,124 l 4,0 0,4 -4,0 z M 28,124 l 4,0 0,4 -4,0 z M 36,124 l 4,0 0,4 -4,0 z M 40,124 l 4,0 0,4 -4,0 z M 44,124 l 4,0 0,4 -4,0 z M 48,124 l 4,0 0,4 -4,0 z M 52,124 l 4,0 0,4 -4,0 z M 64,124 l 4,0 0,4 -4,0 z M 72,124 l 4,0 0,4 -4,0 z M 76,124 l 4,0 0,4 -4,0 z M 80,124 l 4,0 0,4 -4,0 z M 84,124 l 4,0 0,4 -4,0 z M 88,124 l 4,0 0,4 -4,0 z M 104,124 l 4,0 0,4 -4,0 z M 116,124 l 4,0 0,4 -4,0 z M 124,124 l 4,0 0,4 -4,0 z M 132,124 l 4,0 0,4 -4,0 z M 148,124 l 4,0 0,4 -4,0 z M 152,124 l 4,0 0,4 -4,0 z M 160,124 l 4,0 0,4 -4,0 z M 192,124 l 4,0 0,4 -4,0 z M 196,124 l 4,0 0,4 -4,0 z M 212,124 l 4,0 0,4 -4,0 z M 220,124 l 4,0 0,4 -4,0 z M 228,124 l 4,0 0,4 -4,0 z M 232,124 l 4,0 0,4 -4,0 z M 240,124 l 4,0 0,4 -4,0 z M 4,128 l 4,0 0,4 -4,0 z M 16,128 l 4,0 0,4 -4,0 z M 20,128 l 4,0 0,4 -4,0 z M 36,128 l 4,0 0,4 -4,0 z M 44,128 l 4,0 0,4 -4,0 z M 48,128 l 4,0 0,4 -4,0 z M 52,128 l 4,0 0,4 -4,0 z M 56,128 l 4,0 0,4 -4,0 z M 72,128 l 4,0 0,4 -4,0 z M 80,128 l 4,0 0,4 -4,0 z M 104,128 l 4,0 0,4 -4,0 z M 116,128 l 4,0 0,4 -4,0 z M 132,128 l 4,0 0,4 -4,0 z M 136,128 l 4,0 0,4 -4,0 z M 148,128 l 4,0 0,4 -4,0 z M 156,128 l 4,0 0,4 -4,0 z M 172,128 l 4,0 0,4 -4,0 z M 176,128 l 4,0 0,4 -4,0 z M 180,128 l 4,0 0,4 -4,0 z M 184,128 l 4,0 0,4 -4,0 z M 196,128 l 4,0 0,4 -4,0 z M 200,128 l 4,0 0,4 -4,0 z M 212,128 l 4,0 0,4 -4,0 z M 228,128 l 4,0 0,4 -4,0 z M 232,128 l 4,0 0,4 -4,0 z M 236,128 l 4,0 0,4 -4,0 z M 4,132 l 4,0 0,4 -4,0 z M 8,132 l 4,0 0,4 -4,0 z M 20,132 l 4,0 0,4 -4,0 z M 24,132 l 4,0 0,4 -4,0 z M 28,132 l 4,0 0,4 -4,0 z M 32,132 l 4,0 0,4 -4,0 z M 36,132 l 4,0 0,4 -4,0 z M 56,132 l 4,0 0,4 -4,0 z M 64,132 l 4,0 0,4 -4,0 z M 76,132 l 4,0 0,4 -4,0 z M 84,132 l 4,0 0,4 -4,0 z M 88,132 l 4,0 0,4 -4,0 z M 96,132 l 4,0 0,4 -4,0 z M 100,132 l 4,0 0,4 -4,0 z M 116,132 l 4,0 0,4 -4,0 z M 120,132 l 4,0 0,4 -4,0 z M 124,132 l 4,0 0,4 -4,0 z M 128,132 l 4,0 0,4 -4,0 z M 132,132 l 4,0 0,4 -4,0 z M 136,132 l 4,0 0,4 -4,0 z M 140,132 l 4,0 0,4 -4,0 z M 144,132 l 4,0 0,4 -4,0 z M 148,132 l 4,0 0,4 -4,0 z M 152,132 l 4,0 0,4 -4,0 z M 156,132 l 4,0 0,4 -4,0 z M 164,132 l 4,0 0,4 -4,0 z M 184,132 l 4,0 0,4 -4,0 z M 188,132 l 4,0 0,4 -4,0 z M 200,132 l 4,0 0,4 -4,0 z M 204,132 l 4,0 0,4 -4,0 z M 208,132 l 4,0 0,4 -4,0 z M 212,132 l 4,0 0,4 -4,0 z M 216,132 l 4,0 0,4 -4,0 z M 220,132 l 4,0 0,4 -4,0 z M 224,132 l 4,0 0,4 -4,0 z M 228,132 l 4,0 0,4 -4,0 z M 232,132 l 4,0 0,4 -4,0 z M 236,132 l 4,0 0,4 -4,0 z M 240,132 l 4,0 0,4 -4,0 z M 244,132 l 4,0 0,4 -4,0 z M 4,136 l 4,0 0,4 -4,0 z M 12,136 l 4,0 0,4 -4,0 z M 16,136 l 4,0 0,4 -4,0 z M 20,136 l 4,0 0,4 -4,0 z M 24,136 l 4,0 0,4 -4,0 z M 36,136 l 4,0 0,4 -4,0 z M 40,136 l 4,0 0,4 -4,0 z M 44,136 l 4,0 0,4 -4,0 z M 48,136 l 4,0 0,4 -4,0 z M 52,136 l 4,0 0,4 -4,0 z M 56,136 l 4,0 0,4 -4,0 z M 68,136 l 4,0 0,4 -4,0 z M 100,136 l 4,0 0,4 -4,0 z M 104,136 l 4,0 0,4 -4,0 z M 108,136 l 4,0 0,4 -4,0 z M 112,136 l 4,0 0,4 -4,0 z M 116,136 l 4,0 0,4 -4,0 z M 120,136 l 4,0 0,4 -4,0 z M 124,136 l 4,0 0,4 -4,0 z M 128,136 l 4,0 0,4 -4,0 z M 132,136 l 4,0 0,4 -4,0 z M 140,136 l 4,0 0,4 -4,0 z M 144,136 l 4,0 0,4 -4,0 z M 152,136 l 4,0 0,4 -4,0 z M 168,136 l 4,0 0,4 -4,0 z M 180,136 l 4,0 0,4 -4,0 z M 184,136 l 4,0 0,4 -4,0 z M 200,136 l 4,0 0,4 -4,0 z M 212,136 l 4,0 0,4 -4,0 z M 220,136 l 4,0 0,4 -4,0 z M 224,136 l 4,0 0,4 -4,0 z M 228,136 l 4,0 0,4 -4,0 z M 240,136 l 4,0 0,4 -4,0 z M 244,136 l 4,0 0,4 -4,0 z M 4,140 l 4,0 0,4 -4,0 z M 8,140 l 4,0 0,4 -4,0 z M 24,140 l 4,0 0,4 -4,0 z M 28,140 l 4,0 0,4 -4,0 z M 48,140 l 4,0 0,4 -4,0 z M 60,140 l 4,0 0,4 -4,0 z M 64,140 l 4,0 0,4 -4,0 z M 68,140 l 4,0 0,4 -4,0 z M 76,140 l 4,0 0,4 -4,0 z M 80,140 l 4,0 0,4 -4,0 z M 84,140 l 4,0 0,4 -4,0 z M 92,140 l 4,0 0,4 -4,0 z M 96,140 l 4,0 0,4 -4,0 z M 100,140 l 4,0 0,4 -4,0 z M 124,140 l 4,0 0,4 -4,0 z M 128,140 l 4,0 0,4 -4,0 z M 132,140 l 4,0 0,4 -4,0 z M 140,140 l 4,0 0,4 -4,0 z M 144,140 l 4,0 0,4 -4,0 z M 148,140 l 4,0 0,4 -4,0 z M 156,140 l 4,0 0,4 -4,0 z M 164,140 l 4,0 0,4 -4,0 z M 176,140 l 4,0 0,4 -4,0 z M 184,140 l 4,0 0,4 -4,0 z M 192,140 l 4,0 0,4 -4,0 z M 196,140 l 4,0 0,4 -4,0 z M 208,140 l 4,0 0,4 -4,0 z M 216,140 l 4,0 0,4 -4,0 z M 220,140 l 4,0 0,4 -4,0 z M 228,140 l 4,0 0,4 -4,0 z M 232,140 l 4,0 0,4 -4,0 z M 236,140 l 4,0 0,4 -4,0 z M 240,140 l 4,0 0,4 -4,0 z M 244,140 l 4,0 0,4 -4,0 z M 4,144 l 4,0 0,4 -4,0 z M 8,144 l 4,0 0,4 -4,0 z M 16,144 l 4,0 0,4 -4,0 z M 36,144 l 4,0 0,4 -4,0 z M 40,144 l 4,0 0,4 -4,0 z M 56,144 l 4,0 0,4 -4,0 z M 68,144 l 4,0 0,4 -4,0 z M 80,144 l 4,0 0,4 -4,0 z M 88,144 l 4,0 0,4 -4,0 z M 92,144 l 4,0 0,4 -4,0 z M 100,144 l 4,0 0,4 -4,0 z M 108,144 l 4,0 0,4 -4,0 z M 116,144 l 4,0 0,4 -4,0 z M 120,144 l 4,0 0,4 -4,0 z M 124,144 l 4,0 0,4 -4,0 z M 128,144 l 4,0 0,4 -4,0 z M 132,144 l 4,0 0,4 -4,0 z M 136,144 l 4,0 0,4 -4,0 z M 156,144 l 4,0 0,4 -4,0 z M 164,144 l 4,0 0,4 -4,0 z M 168,144 l 4,0 0,4 -4,0 z M 172,144 l 4,0 0,4 -4,0 z M 196,144 l 4,0 0,4 -4,0 z M 200,144 l 4,0 0,4 -4,0 z M 212,144 l 4,0 0,4 -4,0 z M 216,144 l 4,0 0,4 -4,0 z M 12,148 l 4,0 0,4 -4,0 z M 20,148 l 4,0 0,4 -4,0 z M 28,148 l 4,0 0,4 -4,0 z M 36,148 l 4,0 0,4 -4,0 z M 44,148 l 4,0 0,4 -4,0 z M 52,148 l 4,0 0,4 -4,0 z M 56,148 l 4,0 0,4 -4,0 z M 60,148 l 4,0 0,4 -4,0 z M 68,148 l 4,0 0,4 -4,0 z M 72,148 l 4,0 0,4 -4,0 z M 88,148 l 4,0 0,4 -4,0 z M 92,148 l 4,0 0,4 -4,0 z M 96,148 l 4,0 0,4 -4,0 z M 100,148 l 4,0 0,4 -4,0 z M 104,148 l 4,0 0,4 -4,0 z M 108,148 l 4,0 0,4 -4,0 z M 112,148 l 4,0 0,4 -4,0 z M 124,148 l 4,0 0,4 -4,0 z M 132,148 l 4,0 0,4 -4,0 z M 148,148 l 4,0 0,4 -4,0 z M 152,148 l 4,0 0,4 -4,0 z M 160,148 l 4,0 0,4 -4,0 z M 164,148 l 4,0 0,4 -4,0 z M 168,148 l 4,0 0,4 -4,0 z M 172,148 l 4,0 0,4 -4,0 z M 204,148 l 4,0 0,4 -4,0 z M 216,148 l 4,0 0,4 -4,0 z M 220,148 l 4,0 0,4 -4,0 z M 232,148 l 4,0 0,4 -4,0 z M 240,148 l 4,0 0,4 -4,0 z M 244,148 l 4,0 0,4 -4,0 z M 4,152 l 4,0 0,4 -4,0 z M 8,152 l 4,0 0,4 -4,0 z M 20,152 l 4,0 0,4 -4,0 z M 24,152 l 4,0 0,4 -4,0 z M 32,152 l 4,0 0,4 -4,0 z M 36,152 l 4,0 0,4 -4,0 z M 40,152 l 4,0 0,4 -4,0 z M 48,152 l 4,0 0,4 -4,0 z M 52,152 l 4,0 0,4 -4,0 z M 56,152 l 4,0 0,4 -4,0 z M 72,152 l 4,0 0,4 -4,0 z M 88,152 l 4,0 0,4 -4,0 z M 92,152 l 4,0 0,4 -4,0 z M 96,152 l 4,0 0,4 -4,0 z M 108,152 l 4,0 0,4 -4,0 z M 112,152 l 4,0 0,4 -4,0 z M 116,152 l 4,0 0,4 -4,0 z M 120,152 l 4,0 0,4 -4,0 z M 124,152 l 4,0 0,4 -4,0 z M 128,152 l 4,0 0,4 -4,0 z M 136,152 l 4,0 0,4 -4,0 z M 152,152 l 4,0 0,4 -4,0 z M 156,152 l 4,0 0,4 -4,0 z M 164,152 l 4,0 0,4 -4,0 z M 172,152 l 4,0 0,4 -4,0 z M 180,152 l 4,0 0,4 -4,0 z M 184,152 l 4,0 0,4 -4,0 z M 200,152 l 4,0 0,4 -4,0 z M 208,152 l 4,0 0,4 -4,0 z M 212,152 l 4,0 0,4 -4,0 z M 220,152 l 4,0 0,4 -4,0 z M 224,152 l 4,0 0,4 -4,0 z M 228,152 l 4,0 0,4 -4,0 z M 232,152 l 4,0 0,4 -4,0 z M 240,152 l 4,0 0,4 -4,0 z M 244,152 l 4,0 0,4 -4,0 z M 4,156 l 4,0 0,4 -4,0 z M 8,156 l 4,0 0,4 -4,0 z M 12,156 l 4,0 0,4 -4,0 z M 20,156 l 4,0 0,4 -4,0 z M 24,156 l 4,0 0,4 -4,0 z M 28,156 l 4,0 0,4 -4,0 z M 32,156 l 4,0 0,4 -4,0 z M 48,156 l 4,0 0,4 -4,0 z M 56,156 l 4,0 0,4 -4,0 z M 68,156 l 4,0 0,4 -4,0 z M 76,156 l 4,0 0,4 -4,0 z M 88,156 l 4,0 0,4 -4,0 z M 104,156 l 4,0 0,4 -4,0 z M 108,156 l 4,0 0,4 -4,0 z M 112,156 l 4,0 0,4 -4,0 z M 116,156 l 4,0 0,4 -4,0 z M 124,156 l 4,0 0,4 -4,0 z M 148,156 l 4,0 0,4 -4,0 z M 156,156 l 4,0 0,4 -4,0 z M 160,156 l 4,0 0,4 -4,0 z M 168,156 l 4,0 0,4 -4,0 z M 184,156 l 4,0 0,4 -4,0 z M 192,156 l 4,0 0,4 -4,0 z M 196,156 l 4,0 0,4 -4,0 z M 200,156 l 4,0 0,4 -4,0 z M 208,156 l 4,0 0,4 -4,0 z M 212,156 l 4,0 0,4 -4,0 z M 216,156 l 4,0 0,4 -4,0 z M 236,156 l 4,0 0,4 -4,0 z M 8,160 l 4,0 0,4 -4,0 z M 12,160 l 4,0 0,4 -4,0 z M 20,160 l 4,0 0,4 -4,0 z M 24,160 l 4,0 0,4 -4,0 z M 32,160 l 4,0 0,4 -4,0 z M 36,160 l 4,0 0,4 -4,0 z M 40,160 l 4,0 0,4 -4,0 z M 72,160 l 4,0 0,4 -4,0 z M 76,160 l 4,0 0,4 -4,0 z M 88,160 l 4,0 0,4 -4,0 z M 92,160 l 4,0 0,4 -4,0 z M 96,160 l 4,0 0,4 -4,0 z M 100,160 l 4,0 0,4 -4,0 z M 108,160 l 4,0 0,4 -4,0 z M 112,160 l 4,0 0,4 -4,0 z M 116,160 l 4,0 0,4 -4,0 z M 120,160 l 4,0 0,4 -4,0 z M 124,160 l 4,0 0,4 -4,0 z M 128,160 l 4,0 0,4 -4,0 z M 180,160 l 4,0 0,4 -4,0 z M 192,160 l 4,0 0,4 -4,0 z M 200,160 l 4,0 0,4 -4,0 z M 208,160 l 4,0 0,4 -4,0 z M 216,160 l 4,0 0,4 -4,0 z M 224,160 l 4,0 0,4 -4,0 z M 4,164 l 4,0 0,4 -4,0 z M 12,164 l 4,0 0,4 -4,0 z M 20,164 l 4,0 0,4 -4,0 z M 28,164 l 4,0 0,4 -4,0 z M 32,164 l 4,0 0,4 -4,0 z M 40,164 l 4,0 0,4 -4,0 z M 44,164 l 4,0 0,4 -4,0 z M 48,164 l 4,0 0,4 -4,0 z M 52,164 l 4,0 0,4 -4,0 z M 56,164 l 4,0 0,4 -4,0 z M 60,164 l 4,0 0,4 -4,0 z M 76,164 l 4,0 0,4 -4,0 z M 92,164 l 4,0 0,4 -4,0 z M 100,164 l 4,0 0,4 -4,0 z M 104,164 l 4,0 0,4 -4,0 z M 108,164 l 4,0 0,4 -4,0 z M 112,164 l 4,0 0,4 -4,0 z M 120,164 l 4,0 0,4 -4,0 z M 124,164 l 4,0 0,4 -4,0 z M 128,164 l 4,0 0,4 -4,0 z M 132,164 l 4,0 0,4 -4,0 z M 140,164 l 4,0 0,4 -4,0 z M 144,164 l 4,0 0,4 -4,0 z M 148,164 l 4,0 0,4 -4,0 z M 152,164 l 4,0 0,4 -4,0 z M 156,164 l 4,0 0,4 -4,0 z M 164,164 l 4,0 0,4 -4,0 z M 176,164 l 4,0 0,4 -4,0 z M 180,164 l 4,0 0,4 -4,0 z M 184,164 l 4,0 0,4 -4,0 z M 188,164 l 4,0 0,4 -4,0 z M 192,164 l 4,0 0,4 -4,0 z M 204,164 l 4,0 0,4 -4,0 z M 216,164 l 4,0 0,4 -4,0 z M 220,164 l 4,0 0,4 -4,0 z M 228,164 l 4,0 0,4 -4,0 z M 236,164 l 4,0 0,4 -4,0 z M 240,164 l 4,0 0,4 -4,0 z M 244,164 l 4,0 0,4 -4,0 z M 4,168 l 4,0 0,4 -4,0 z M 12,168 l 4,0 0,4 -4,0 z M 20,168 l 4,0 0,4 -4,0 z M 32,168 l 4,0 0,4 -4,0 z M 36,168 l 4,0 0,4 -4,0 z M 48,168 l 4,0 0,4 -4,0 z M 56,168 l 4,0 0,4 -4,0 z M 60,168 l 4,0 0,4 -4,0 z M 72,168 l 4,0 0,4 -4,0 z M 76,168 l 4,0 0,4 -4,0 z M 80,168 l 4,0 0,4 -4,0 z M 84,168 l 4,0 0,4 -4,0 z M 92,168 l 4,0 0,4 -4,0 z M 96,168 l 4,0 0,4 -4,0 z M 100,168 l 4,0 0,4 -4,0 z M 116,168 l 4,0 0,4 -4,0 z M 132,168 l 4,0 0,4 -4,0 z M 156,168 l 4,0 0,4 -4,0 z M 160,168 l 4,0 0,4 -4,0 z M 164,168 l 4,0 0,4 -4,0 z M 172,168 l 4,0 0,4 -4,0 z M 180,168 l 4,0 0,4 -4,0 z M 188,168 l 4,0 0,4 -4,0 z M 200,168 l 4,0 0,4 -4,0 z M 204,168 l 4,0 0,4 -4,0 z M 212,168 l 4,0 0,4 -4,0 z M 228,168 l 4,0 0,4 -4,0 z M 4,172 l 4,0 0,4 -4,0 z M 16,172 l 4,0 0,4 -4,0 z M 28,172 l 4,0 0,4 -4,0 z M 32,172 l 4,0 0,4 -4,0 z M 44,172 l 4,0 0,4 -4,0 z M 52,172 l 4,0 0,4 -4,0 z M 56,172 l 4,0 0,4 -4,0 z M 60,172 l 4,0 0,4 -4,0 z M 64,172 l 4,0 0,4 -4,0 z M 72,172 l 4,0 0,4 -4,0 z M 76,172 l 4,0 0,4 -4,0 z M 84,172 l 4,0 0,4 -4,0 z M 88,172 l 4,0 0,4 -4,0 z M 96,172 l 4,0 0,4 -4,0 z M 112,172 l 4,0 0,4 -4,0 z M 116,172 l 4,0 0,4 -4,0 z M 120,172 l 4,0 0,4 -4,0 z M 124,172 l 4,0 0,4 -4,0 z M 132,172 l 4,0 0,4 -4,0 z M 136,172 l 4,0 0,4 -4,0 z M 144,172 l 4,0 0,4 -4,0 z M 156,172 l 4,0 0,4 -4,0 z M 168,172 l 4,0 0,4 -4,0 z M 176,172 l 4,0 0,4 -4,0 z M 188,172 l 4,0 0,4 -4,0 z M 196,172 l 4,0 0,4 -4,0 z M 200,172 l 4,0 0,4 -4,0 z M 204,172 l 4,0 0,4 -4,0 z M 208,172 l 4,0 0,4 -4,0 z M 212,172 l 4,0 0,4 -4,0 z M 216,172 l 4,0 0,4 -4,0 z M 232,172 l 4,0 0,4 -4,0 z M 236,172 l 4,0 0,4 -4,0 z M 240,172 l 4,0 0,4 -4,0 z M 244,172 l 4,0 0,4 -4,0 z M 8,176 l 4,0 0,4 -4,0 z M 16,176 l 4,0 0,4 -4,0 z M 20,176 l 4,0 0,4 -4,0 z M 24,176 l 4,0 0,4 -4,0 z M 56,176 l 4,0 0,4 -4,0 z M 60,176 l 4,0 0,4 -4,0 z M 80,176 l 4,0 0,4 -4,0 z M 84,176 l 4,0 0,4 -4,0 z M 92,176 l 4,0 0,4 -4,0 z M 96,176 l 4,0 0,4 -4,0 z M 100,176 l 4,0 0,4 -4,0 z M 104,176 l 4,0 0,4 -4,0 z M 108,176 l 4,0 0,4 -4,0 z M 120,176 l 4,0 0,4 -4,0 z M 124,176 l 4,0 0,4 -4,0 z M 128,176 l 4,0 0,4 -4,0 z M 136,176 l 4,0 0,4 -4,0 z M 140,176 l 4,0 0,4 -4,0 z M 148,176 l 4,0 0,4 -4,0 z M 152,176 l 4,0 0,4 -4,0 z M 156,176 l 4,0 0,4 -4,0 z M 160,176 l 4,0 0,4 -4,0 z M 168,176 l 4,0 0,4 -4,0 z M 172,176 l 4,0 0,4 -4,0 z M 176,176 l 4,0 0,4 -4,0 z M 180,176 l 4,0 0,4 -4,0 z M 192,176 l 4,0 0,4 -4,0 z M 200,176 l 4,0 0,4 -4,0 z M 216,176 l 4,0 0,4 -4,0 z M 220,176 l 4,0 0,4 -4,0 z M 236,176 l 4,0 0,4 -4,0 z M 240,176 l 4,0 0,4 -4,0 z M 244,176 l 4,0 0,4 -4,0 z M 8,180 l 4,0 0,4 -4,0 z M 12,180 l 4,0 0,4 -4,0 z M 28,180 l 4,0 0,4 -4,0 z M 40,180 l 4,0 0,4 -4,0 z M 44,180 l 4,0 0,4 -4,0 z M 48,180 l 4,0 0,4 -4,0 z M 56,180 l 4,0 0,4 -4,0 z M 60,180 l 4,0 0,4 -4,0 z M 88,180 l 4,0 0,4 -4,0 z M 92,180 l 4,0 0,4 -4,0 z M 100,180 l 4,0 0,4 -4,0 z M 104,180 l 4,0 0,4 -4,0 z M 112,180 l 4,0 0,4 -4,0 z M 116,180 l 4,0 0,4 -4,0 z M 120,180 l 4,0 0,4 -4,0 z M 124,180 l 4,0 0,4 -4,0 z M 128,180 l 4,0 0,4 -4,0 z M 140,180 l 4,0 0,4 -4,0 z M 144,180 l 4,0 0,4 -4,0 z M 156,180 l 4,0 0,4 -4,0 z M 164,180 l 4,0 0,4 -4,0 z M 168,180 l 4,0 0,4 -4,0 z M 172,180 l 4,0 0,4 -4,0 z M 176,180 l 4,0 0,4 -4,0 z M 184,180 l 4,0 0,4 -4,0 z M 188,180 l 4,0 0,4 -4,0 z M 196,180 l 4,0 0,4 -4,0 z M 220,180 l 4,0 0,4 -4,0 z M 224,180 l 4,0 0,4 -4,0 z M 228,180 l 4,0 0,4 -4,0 z M 236,180 l 4,0 0,4 -4,0 z M 244,180 l 4,0 0,4 -4,0 z M 4,184 l 4,0 0,4 -4,0 z M 16,184 l 4,0 0,4 -4,0 z M 20,184 l 4,0 0,4 -4,0 z M 32,184 l 4,0 0,4 -4,0 z M 36,184 l 4,0 0,4 -4,0 z M 60,184 l 4,0 0,4 -4,0 z M 64,184 l 4,0 0,4 -4,0 z M 72,184 l 4,0 0,4 -4,0 z M 80,184 l 4,0 0,4 -4,0 z M 88,184 l 4,0 0,4 -4,0 z M 92,184 l 4,0 0,4 -4,0 z M 100,184 l 4,0 0,4 -4,0 z M 108,184 l 4,0 0,4 -4,0 z M 112,184 l 4,0 0,4 -4,0 z M 124,184 l 4,0 0,4 -4,0 z M 140,184 l 4,0 0,4 -4,0 z M 152,184 l 4,0 0,4 -4,0 z M 156,184 l 4,0 0,4 -4,0 z M 160,184 l 4,0 0,4 -4,0 z M 168,184 l 4,0 0,4 -4,0 z M 172,184 l 4,0 0,4 -4,0 z M 180,184 l 4,0 0,4 -4,0 z M 208,184 l 4,0 0,4 -4,0 z M 212,184 l 4,0 0,4 -4,0 z M 216,184 l 4,0 0,4 -4,0 z M 220,184 l 4,0 0,4 -4,0 z M 224,184 l 4,0 0,4 -4,0 z M 240,184 l 4,0 0,4 -4,0 z M 244,184 l 4,0 0,4 -4,0 z M 4,188 l 4,0 0,4 -4,0 z M 12,188 l 4,0 0,4 -4,0 z M 16,188 l 4,0 0,4 -4,0 z M 20,188 l 4,0 0,4 -4,0 z M 24,188 l 4,0 0,4 -4,0 z M 28,188 l 4,0 0,4 -4,0 z M 32,188 l 4,0 0,4 -4,0 z M 36,188 l 4,0 0,4 -4,0 z M 40,188 l 4,0 0,4 -4,0 z M 44,188 l 4,0 0,4 -4,0 z M 68,188 l 4,0 0,4 -4,0 z M 72,188 l 4,0 0,4 -4,0 z M 76,188 l 4,0 0,4 -4,0 z M 80,188 l 4,0 0,4 -4,0 z M 84,188 l 4,0 0,4 -4,0 z M 92,188 l 4,0 0,4 -4,0 z M 96,188 l 4,0 0,4 -4,0 z M 100,188 l 4,0 0,4 -4,0 z M 104,188 l 4,0 0,4 -4,0 z M 112,188 l 4,0 0,4 -4,0 z M 116,188 l 4,0 0,4 -4,0 z M 120,188 l 4,0 0,4 -4,0 z M 124,188 l 4,0 0,4 -4,0 z M 128,188 l 4,0 0,4 -4,0 z M 136,188 l 4,0 0,4 -4,0 z M 144,188 l 4,0 0,4 -4,0 z M 172,188 l 4,0 0,4 -4,0 z M 176,188 l 4,0 0,4 -4,0 z M 192,188 l 4,0 0,4 -4,0 z M 196,188 l 4,0 0,4 -4,0 z M 200,188 l 4,0 0,4 -4,0 z M 208,188 l 4,0 0,4 -4,0 z M 212,188 l 4,0 0,4 -4,0 z M 220,188 l 4,0 0,4 -4,0 z M 228,188 l 4,0 0,4 -4,0 z M 8,192 l 4,0 0,4 -4,0 z M 20,192 l 4,0 0,4 -4,0 z M 32,192 l 4,0 0,4 -4,0 z M 40,192 l 4,0 0,4 -4,0 z M 44,192 l 4,0 0,4 -4,0 z M 48,192 l 4,0 0,4 -4,0 z M 52,192 l 4,0 0,4 -4,0 z M 56,192 l 4,0 0,4 -4,0 z M 64,192 l 4,0 0,4 -4,0 z M 80,192 l 4,0 0,4 -4,0 z M 88,192 l 4,0 0,4 -4,0 z M 92,192 l 4,0 0,4 -4,0 z M 96,192 l 4,0 0,4 -4,0 z M 108,192 l 4,0 0,4 -4,0 z M 112,192 l 4,0 0,4 -4,0 z M 148,192 l 4,0 0,4 -4,0 z M 156,192 l 4,0 0,4 -4,0 z M 164,192 l 4,0 0,4 -4,0 z M 168,192 l 4,0 0,4 -4,0 z M 172,192 l 4,0 0,4 -4,0 z M 176,192 l 4,0 0,4 -4,0 z M 180,192 l 4,0 0,4 -4,0 z M 192,192 l 4,0 0,4 -4,0 z M 200,192 l 4,0 0,4 -4,0 z M 208,192 l 4,0 0,4 -4,0 z M 224,192 l 4,0 0,4 -4,0 z M 228,192 l 4,0 0,4 -4,0 z M 4,196 l 4,0 0,4 -4,0 z M 20,196 l 4,0 0,4 -4,0 z M 28,196 l 4,0 0,4 -4,0 z M 36,196 l 4,0 0,4 -4,0 z M 40,196 l 4,0 0,4 -4,0 z M 44,196 l 4,0 0,4 -4,0 z M 56,196 l 4,0 0,4 -4,0 z M 72,196 l 4,0 0,4 -4,0 z M 76,196 l 4,0 0,4 -4,0 z M 80,196 l 4,0 0,4 -4,0 z M 92,196 l 4,0 0,4 -4,0 z M 100,196 l 4,0 0,4 -4,0 z M 104,196 l 4,0 0,4 -4,0 z M 108,196 l 4,0 0,4 -4,0 z M 112,196 l 4,0 0,4 -4,0 z M 116,196 l 4,0 0,4 -4,0 z M 120,196 l 4,0 0,4 -4,0 z M 128,196 l 4,0 0,4 -4,0 z M 140,196 l 4,0 0,4 -4,0 z M 144,196 l 4,0 0,4 -4,0 z M 148,196 l 4,0 0,4 -4,0 z M 160,196 l 4,0 0,4 -4,0 z M 184,196 l 4,0 0,4 -4,0 z M 200,196 l 4,0 0,4 -4,0 z M 204,196 l 4,0 0,4 -4,0 z M 208,196 l 4,0 0,4 -4,0 z M 220,196 l 4,0 0,4 -4,0 z M 228,196 l 4,0 0,4 -4,0 z M 240,196 l 4,0 0,4 -4,0 z M 244,196 l 4,0 0,4 -4,0 z M 4,200 l 4,0 0,4 -4,0 z M 8,200 l 4,0 0,4 -4,0 z M 16,200 l 4,0 0,4 -4,0 z M 20,200 l 4,0 0,4 -4,0 z M 24,200 l 4,0 0,4 -4,0 z M 40,200 l 4,0 0,4 -4,0 z M 44,200 l 4,0 0,4 -4,0 z M 52,200 l 4,0 0,4 -4,0 z M 60,200 l 4,0 0,4 -4,0 z M 64,200 l 4,0 0,4 -4,0 z M 72,200 l 4,0 0,4 -4,0 z M 76,200 l 4,0 0,4 -4,0 z M 88,200 l 4,0 0,4 -4,0 z M 96,200 l 4,0 0,4 -4,0 z M 104,200 l 4,0 0,4 -4,0 z M 108,200 l 4,0 0,4 -4,0 z M 116,200 l 4,0 0,4 -4,0 z M 136,200 l 4,0 0,4 -4,0 z M 140,200 l 4,0 0,4 -4,0 z M 144,200 l 4,0 0,4 -4,0 z M 152,200 l 4,0 0,4 -4,0 z M 160,200 l 4,0 0,4 -4,0 z M 164,200 l 4,0 0,4 -4,0 z M 172,200 l 4,0 0,4 -4,0 z M 180,200 l 4,0 0,4 -4,0 z M 188,200 l 4,0 0,4 -4,0 z M 196,200 l 4,0 0,4 -4,0 z M 208,200 l 4,0 0,4 -4,0 z M 212,200 l 4,0 0,4 -4,0 z M 216,200 l 4,0 0,4 -4,0 z M 224,200 l 4,0 0,4 -4,0 z M 228,200 l 4,0 0,4 -4,0 z M 12,204 l 4,0 0,4 -4,0 z M 16,204 l 4,0 0,4 -4,0 z M 20,204 l 4,0 0,4 -4,0 z M 24,204 l 4,0 0,4 -4,0 z M 28,204 l 4,0 0,4 -4,0 z M 40,204 l 4,0 0,4 -4,0 z M 44,204 l 4,0 0,4 -4,0 z M 48,204 l 4,0 0,4 -4,0 z M 60,204 l 4,0 0,4 -4,0 z M 76,204 l 4,0 0,4 -4,0 z M 84,204 l 4,0 0,4 -4,0 z M 88,204 l 4,0 0,4 -4,0 z M 104,204 l 4,0 0,4 -4,0 z M 112,204 l 4,0 0,4 -4,0 z M 120,204 l 4,0 0,4 -4,0 z M 128,204 l 4,0 0,4 -4,0 z M 144,204 l 4,0 0,4 -4,0 z M 148,204 l 4,0 0,4 -4,0 z M 156,204 l 4,0 0,4 -4,0 z M 160,204 l 4,0 0,4 -4,0 z M 164,204 l 4,0 0,4 -4,0 z M 168,204 l 4,0 0,4 -4,0 z M 176,204 l 4,0 0,4 -4,0 z M 192,204 l 4,0 0,4 -4,0 z M 196,204 l 4,0 0,4 -4,0 z M 208,204 l 4,0 0,4 -4,0 z M 228,204 l 4,0 0,4 -4,0 z M 232,204 l 4,0 0,4 -4,0 z M 236,204 l 4,0 0,4 -4,0 z M 240,204 l 4,0 0,4 -4,0 z M 4,208 l 4,0 0,4 -4,0 z M 8,208 l 4,0 0,4 -4,0 z M 12,208 l 4,0 0,4 -4,0 z M 20,208 l 4,0 0,4 -4,0 z M 32,208 l 4,0 0,4 -4,0 z M 40,208 l 4,0 0,4 -4,0 z M 44,208 l 4,0 0,4 -4,0 z M 48,208 l 4,0 0,4 -4,0 z M 52,208 l 4,0 0,4 -4,0 z M 64,208 l 4,0 0,4 -4,0 z M 80,208 l 4,0 0,4 -4,0 z M 92,208 l 4,0 0,4 -4,0 z M 96,208 l 4,0 0,4 -4,0 z M 108,208 l 4,0 0,4 -4,0 z M 116,208 l 4,0 0,4 -4,0 z M 128,208 l 4,0 0,4 -4,0 z M 140,208 l 4,0 0,4 -4,0 z M 148,208 l 4,0 0,4 -4,0 z M 164,208 l 4,0 0,4 -4,0 z M 176,208 l 4,0 0,4 -4,0 z M 192,208 l 4,0 0,4 -4,0 z M 200,208 l 4,0 0,4 -4,0 z M 224,208 l 4,0 0,4 -4,0 z M 232,208 l 4,0 0,4 -4,0 z M 236,208 l 4,0 0,4 -4,0 z M 4,212 l 4,0 0,4 -4,0 z M 8,212 l 4,0 0,4 -4,0 z M 12,212 l 4,0 0,4 -4,0 z M 16,212 l 4,0 0,4 -4,0 z M 28,212 l 4,0 0,4 -4,0 z M 32,212 l 4,0 0,4 -4,0 z M 40,212 l 4,0 0,4 -4,0 z M 48,212 l 4,0 0,4 -4,0 z M 56,212 l 4,0 0,4 -4,0 z M 60,212 l 4,0 0,4 -4,0 z M 68,212 l 4,0 0,4 -4,0 z M 72,212 l 4,0 0,4 -4,0 z M 92,212 l 4,0 0,4 -4,0 z M 96,212 l 4,0 0,4 -4,0 z M 112,212 l 4,0 0,4 -4,0 z M 116,212 l 4,0 0,4 -4,0 z M 120,212 l 4,0 0,4 -4,0 z M 124,212 l 4,0 0,4 -4,0 z M 128,212 l 4,0 0,4 -4,0 z M 132,212 l 4,0 0,4 -4,0 z M 136,212 l 4,0 0,4 -4,0 z M 140,212 l 4,0 0,4 -4,0 z M 144,212 l 4,0 0,4 -4,0 z M 148,212 l 4,0 0,4 -4,0 z M 152,212 l 4,0 0,4 -4,0 z M 156,212 l 4,0 0,4 -4,0 z M 164,212 l 4,0 0,4 -4,0 z M 176,212 l 4,0 0,4 -4,0 z M 188,212 l 4,0 0,4 -4,0 z M 204,212 l 4,0 0,4 -4,0 z M 212,212 l 4,0 0,4 -4,0 z M 216,212 l 4,0 0,4 -4,0 z M 220,212 l 4,0 0,4 -4,0 z M 224,212 l 4,0 0,4 -4,0 z M 228,212 l 4,0 0,4 -4,0 z M 240,212 l 4,0 0,4 -4,0 z M 244,212 l 4,0 0,4 -4,0 z M 36,216 l 4,0 0,4 -4,0 z M 40,216 l 4,0 0,4 -4,0 z M 44,216 l 4,0 0,4 -4,0 z M 52,216 l 4,0 0,4 -4,0 z M 72,216 l 4,0 0,4 -4,0 z M 80,216 l 4,0 0,4 -4,0 z M 96,216 l 4,0 0,4 -4,0 z M 104,216 l 4,0 0,4 -4,0 z M 108,216 l 4,0 0,4 -4,0 z M 116,216 l 4,0 0,4 -4,0 z M 132,216 l 4,0 0,4 -4,0 z M 140,216 l 4,0 0,4 -4,0 z M 152,216 l 4,0 0,4 -4,0 z M 164,216 l 4,0 0,4 -4,0 z M 168,216 l 4,0 0,4 -4,0 z M 180,216 l 4,0 0,4 -4,0 z M 200,216 l 4,0 0,4 -4,0 z M 204,216 l 4,0 0,4 -4,0 z M 208,216 l 4,0 0,4 -4,0 z M 212,216 l 4,0 0,4 -4,0 z M 228,216 l 4,0 0,4 -4,0 z M 232,216 l 4,0 0,4 -4,0 z M 236,216 l 4,0 0,4 -4,0 z M 240,216 l 4,0 0,4 -4,0 z M 244,216 l 4,0 0,4 -4,0 z M 4,220 l 4,0 0,4 -4,0 z M 8,220 l 4,0 0,4 -4,0 z M 12,220 l 4,0 0,4 -4,0 z M 16,220 l 4,0 0,4 -4,0 z M 20,220 l 4,0 0,4 -4,0 z M 24,220 l 4,0 0,4 -4,0 z M 28,220 l 4,0 0,4 -4,0 z M 36,220 l 4,0 0,4 -4,0 z M 68,220 l 4,0 0,4 -4,0 z M 72,220 l 4,0 0,4 -4,0 z M 80,220 l 4,0 0,4 -4,0 z M 112,220 l 4,0 0,4 -4,0 z M 116,220 l 4,0 0,4 -4,0 z M 124,220 l 4,0 0,4 -4,0 z M 132,220 l 4,0 0,4 -4,0 z M 136,220 l 4,0 0,4 -4,0 z M 144,220 l 4,0 0,4 -4,0 z M 152,220 l 4,0 0,4 -4,0 z M 156,220 l 4,0 0,4 -4,0 z M 168,220 l 4,0 0,4 -4,0 z M 172,220 l 4,0 0,4 -4,0 z M 176,220 l 4,0 0,4 -4,0 z M 184,220 l 4,0 0,4 -4,0 z M 192,220 l 4,0 0,4 -4,0 z M 196,220 l 4,0 0,4 -4,0 z M 200,220 l 4,0 0,4 -4,0 z M 204,220 l 4,0 0,4 -4,0 z M 208,220 l 4,0 0,4 -4,0 z M 212,220 l 4,0 0,4 -4,0 z M 220,220 l 4,0 0,4 -4,0 z M 228,220 l 4,0 0,4 -4,0 z M 232,220 l 4,0 0,4 -4,0 z M 236,220 l 4,0 0,4 -4,0 z M 244,220 l 4,0 0,4 -4,0 z M 4,224 l 4,0 0,4 -4,0 z M 28,224 l 4,0 0,4 -4,0 z M 40,224 l 4,0 0,4 -4,0 z M 48,224 l 4,0 0,4 -4,0 z M 56,224 l 4,0 0,4 -4,0 z M 80,224 l 4,0 0,4 -4,0 z M 84,224 l 4,0 0,4 -4,0 z M 88,224 l 4,0 0,4 -4,0 z M 96,224 l 4,0 0,4 -4,0 z M 100,224 l 4,0 0,4 -4,0 z M 104,224 l 4,0 0,4 -4,0 z M 112,224 l 4,0 0,4 -4,0 z M 116,224 l 4,0 0,4 -4,0 z M 132,224 l 4,0 0,4 -4,0 z M 136,224 l 4,0 0,4 -4,0 z M 152,224 l 4,0 0,4 -4,0 z M 164,224 l 4,0 0,4 -4,0 z M 172,224 l 4,0 0,4 -4,0 z M 176,224 l 4,0 0,4 -4,0 z M 208,224 l 4,0 0,4 -4,0 z M 212,224 l 4,0 0,4 -4,0 z M 228,224 l 4,0 0,4 -4,0 z M 236,224 l 4,0 0,4 -4,0 z M 4,228 l 4,0 0,4 -4,0 z M 12,228 l 4,0 0,4 -4,0 z M 16,228 l 4,0 0,4 -4,0 z M 20,228 l 4,0 0,4 -4,0 z M 28,228 l 4,0 0,4 -4,0 z M 36,228 l 4,0 0,4 -4,0 z M 40,228 l 4,0 0,4 -4,0 z M 44,228 l 4,0 0,4 -4,0 z M 48,228 l 4,0 0,4 -4,0 z M 56,228 l 4,0 0,4 -4,0 z M 60,228 l 4,0 0,4 -4,0 z M 64,228 l 4,0 0,4 -4,0 z M 72,228 l 4,0 0,4 -4,0 z M 80,228 l 4,0 0,4 -4,0 z M 88,228 l 4,0 0,4 -4,0 z M 92,228 l 4,0 0,4 -4,0 z M 116,228 l 4,0 0,4 -4,0 z M 120,228 l 4,0 0,4 -4,0 z M 124,228 l 4,0 0,4 -4,0 z M 128,228 l 4,0 0,4 -4,0 z M 132,228 l 4,0 0,4 -4,0 z M 136,228 l 4,0 0,4 -4,0 z M 144,228 l 4,0 0,4 -4,0 z M 148,228 l 4,0 0,4 -4,0 z M 156,228 l 4,0 0,4 -4,0 z M 164,228 l 4,0 0,4 -4,0 z M 172,228 l 4,0 0,4 -4,0 z M 176,228 l 4,0 0,4 -4,0 z M 184,228 l 4,0 0,4 -4,0 z M 188,228 l 4,0 0,4 -4,0 z M 200,228 l 4,0 0,4 -4,0 z M 204,228 l 4,0 0,4 -4,0 z M 208,228 l 4,0 0,4 -4,0 z M 212,228 l 4,0 0,4 -4,0 z M 216,228 l 4,0 0,4 -4,0 z M 220,228 l 4,0 0,4 -4,0 z M 224,228 l 4,0 0,4 -4,0 z M 228,228 l 4,0 0,4 -4,0 z M 236,228 l 4,0 0,4 -4,0 z M 240,228 l 4,0 0,4 -4,0 z M 244,228 l 4,0 0,4 -4,0 z M 4,232 l 4,0 0,4 -4,0 z M 12,232 l 4,0 0,4 -4,0 z M 16,232 l 4,0 0,4 -4,0 z M 20,232 l 4,0 0,4 -4,0 z M 28,232 l 4,0 0,4 -4,0 z M 36,232 l 4,0 0,4 -4,0 z M 40,232 l 4,0 0,4 -4,0 z M 48,232 l 4,0 0,4 -4,0 z M 52,232 l 4,0 0,4 -4,0 z M 56,232 l 4,0 0,4 -4,0 z M 60,232 l 4,0 0,4 -4,0 z M 64,232 l 4,0 0,4 -4,0 z M 76,232 l 4,0 0,4 -4,0 z M 88,232 l 4,0 0,4 -4,0 z M 96,232 l 4,0 0,4 -4,0 z M 100,232 l 4,0 0,4 -4,0 z M 104,232 l 4,0 0,4 -4,0 z M 112,232 l 4,0 0,4 -4,0 z M 120,232 l 4,0 0,4 -4,0 z M 132,232 l 4,0 0,4 -4,0 z M 144,232 l 4,0 0,4 -4,0 z M 148,232 l 4,0 0,4 -4,0 z M 156,232 l 4,0 0,4 -4,0 z M 160,232 l 4,0 0,4 -4,0 z M 164,232 l 4,0 0,4 -4,0 z M 168,232 l 4,0 0,4 -4,0 z M 180,232 l 4,0 0,4 -4,0 z M 184,232 l 4,0 0,4 -4,0 z M 192,232 l 4,0 0,4 -4,0 z M 204,232 l 4,0 0,4 -4,0 z M 212,232 l 4,0 0,4 -4,0 z M 216,232 l 4,0 0,4 -4,0 z M 220,232 l 4,0 0,4 -4,0 z M 228,232 l 4,0 0,4 -4,0 z M 244,232 l 4,0 0,4 -4,0 z M 4,236 l 4,0 0,4 -4,0 z M 12,236 l 4,0 0,4 -4,0 z M 16,236 l 4,0 0,4 -4,0 z M 20,236 l 4,0 0,4 -4,0 z M 28,236 l 4,0 0,4 -4,0 z M 36,236 l 4,0 0,4 -4,0 z M 44,236 l 4,0 0,4 -4,0 z M 48,236 l 4,0 0,4 -4,0 z M 56,236 l 4,0 0,4 -4,0 z M 64,236 l 4,0 0,4 -4,0 z M 68,236 l 4,0 0,4 -4,0 z M 72,236 l 4,0 0,4 -4,0 z M 76,236 l 4,0 0,4 -4,0 z M 80,236 l 4,0 0,4 -4,0 z M 104,236 l 4,0 0,4 -4,0 z M 108,236 l 4,0 0,4 -4,0 z M 124,236 l 4,0 0,4 -4,0 z M 128,236 l 4,0 0,4 -4,0 z M 136,236 l 4,0 0,4 -4,0 z M 140,236 l 4,0 0,4 -4,0 z M 144,236 l 4,0 0,4 -4,0 z M 148,236 l 4,0 0,4 -4,0 z M 176,236 l 4,0 0,4 -4,0 z M 196,236 l 4,0 0,4 -4,0 z M 200,236 l 4,0 0,4 -4,0 z M 204,236 l 4,0 0,4 -4,0 z M 212,236 l 4,0 0,4 -4,0 z M 216,236 l 4,0 0,4 -4,0 z M 220,236 l 4,0 0,4 -4,0 z M 232,236 l 4,0 0,4 -4,0 z M 236,236 l 4,0 0,4 -4,0 z M 244,236 l 4,0 0,4 -4,0 z M 4,240 l 4,0 0,4 -4,0 z M 28,240 l 4,0 0,4 -4,0 z M 36,240 l 4,0 0,4 -4,0 z M 48,240 l 4,0 0,4 -4,0 z M 64,240 l 4,0 0,4 -4,0 z M 88,240 l 4,0 0,4 -4,0 z M 92,240 l 4,0 0,4 -4,0 z M 96,240 l 4,0 0,4 -4,0 z M 100,240 l 4,0 0,4 -4,0 z M 104,240 l 4,0 0,4 -4,0 z M 108,240 l 4,0 0,4 -4,0 z M 112,240 l 4,0 0,4 -4,0 z M 116,240 l 4,0 0,4 -4,0 z M 124,240 l 4,0 0,4 -4,0 z M 128,240 l 4,0 0,4 -4,0 z M 136,240 l 4,0 0,4 -4,0 z M 144,240 l 4,0 0,4 -4,0 z M 148,240 l 4,0 0,4 -4,0 z M 168,240 l 4,0 0,4 -4,0 z M 172,240 l 4,0 0,4 -4,0 z M 180,240 l 4,0 0,4 -4,0 z M 192,240 l 4,0 0,4 -4,0 z M 200,240 l 4,0 0,4 -4,0 z M 208,240 l 4,0 0,4 -4,0 z M 212,240 l 4,0 0,4 -4,0 z M 220,240 l 4,0 0,4 -4,0 z M 224,240 l 4,0 0,4 -4,0 z M 236,240 l 4,0 0,4 -4,0 z M 4,244 l 4,0 0,4 -4,0 z M 8,244 l 4,0 0,4 -4,0 z M 12,244 l 4,0 0,4 -4,0 z M 16,244 l 4,0 0,4 -4,0 z M 20,244 l 4,0 0,4 -4,0 z M 24,244 l 4,0 0,4 -4,0 z M 28,244 l 4,0 0,4 -4,0 z M 36,244 l 4,0 0,4 -4,0 z M 40,244 l 4,0 0,4 -4,0 z M 48,244 l 4,0 0,4 -4,0 z M 56,244 l 4,0 0,4 -4,0 z M 72,244 l 4,0 0,4 -4,0 z M 88,244 l 4,0 0,4 -4,0 z M 92,244 l 4,0 0,4 -4,0 z M 104,244 l 4,0 0,4 -4,0 z M 120,244 l 4,0 0,4 -4,0 z M 128,244 l 4,0 0,4 -4,0 z M 132,244 l 4,0 0,4 -4,0 z M 140,244 l 4,0 0,4 -4,0 z M 148,244 l 4,0 0,4 -4,0 z M 152,244 l 4,0 0,4 -4,0 z M 172,244 l 4,0 0,4 -4,0 z M 176,244 l 4,0 0,4 -4,0 z M 180,244 l 4,0 0,4 -4,0 z M 184,244 l 4,0 0,4 -4,0 z M 188,244 l 4,0 0,4 -4,0 z M 196,244 l 4,0 0,4 -4,0 z M 204,244 l 4,0 0,4 -4,0 z M 208,244 l 4,0 0,4 -4,0 z M 224,244 l 4,0 0,4 -4,0 z M 244,244 l 4,0 0,4 -4,0 z " />
	</g>
</svg>
